<svg width="923" height="811" viewBox="0 0 923 811" fill="none" xmlns="http://www.w3.org/2000/svg">
<g clip-path="url(#clip0_285_1064)">
<path d="M803.584 781.681V701.412C803.584 701.412 834.863 758.319 803.584 781.681Z" fill="#C2E1E5"/>
<path d="M805.516 781.667L746.391 727.384C746.391 727.384 809.461 742.824 805.516 781.667Z" fill="#C2E1E5"/>
<path d="M118.445 781.681V701.412C118.445 701.412 87.1658 758.319 118.445 781.681Z" fill="#C2E1E5"/>
<path d="M116.514 781.667L175.639 727.384C175.639 727.384 112.569 742.824 116.514 781.667Z" fill="#C2E1E5"/>
<path d="M655.776 186.352H651.49V68.9456C651.49 60.0221 649.733 51.186 646.318 42.9417C642.904 34.6975 637.899 27.2066 631.59 20.8967C625.28 14.5868 617.79 9.58154 609.547 6.16666C601.303 2.75177 592.468 0.994148 583.545 0.994141H334.826C325.904 0.994122 317.068 2.75172 308.825 6.16658C300.581 9.58144 293.091 14.5867 286.782 20.8965C280.472 27.2064 275.468 34.6973 272.053 42.9416C268.638 51.1858 266.881 60.0219 266.881 68.9454V713.044C266.881 731.066 274.039 748.35 286.782 761.093C299.524 773.837 316.806 780.996 334.826 780.996H583.545C601.565 780.996 618.847 773.837 631.589 761.094C644.332 748.35 651.49 731.067 651.49 713.045V269.923H655.776V186.352Z" fill="#3F3D56"/>
<path d="M586.286 18.6729H553.82C555.313 22.3336 555.883 26.3054 555.48 30.2383C555.076 34.1712 553.712 37.9446 551.507 41.2259C549.302 44.5073 546.324 47.196 542.835 49.0552C539.346 50.9144 535.454 51.8869 531.5 51.8872H389.013C385.06 51.8869 381.167 50.9144 377.678 49.0552C374.189 47.196 371.211 44.5073 369.006 41.226C366.801 37.9446 365.437 34.1712 365.034 30.2383C364.63 26.3054 365.2 22.3336 366.693 18.6729H336.37C322.912 18.6728 310.006 24.0192 300.491 33.5358C290.975 43.0524 285.629 55.9597 285.629 69.4182V712.572C285.629 719.236 286.941 725.835 289.491 731.992C292.041 738.148 295.779 743.742 300.491 748.455C305.202 753.167 310.796 756.905 316.952 759.455C323.108 762.005 329.706 763.318 336.37 763.318H586.286C592.95 763.318 599.548 762.005 605.704 759.455C611.86 756.905 617.454 753.167 622.165 748.455C626.877 743.742 630.615 738.148 633.165 731.992C635.715 725.835 637.027 719.236 637.027 712.572V69.4182C637.027 62.7542 635.715 56.1555 633.165 49.9988C630.615 43.8421 626.877 38.248 622.165 33.5358C617.454 28.8237 611.86 25.0858 605.704 22.5356C599.548 19.9854 592.95 18.6729 586.286 18.6729Z" fill="white"/>
<path d="M580.025 752.274H342.629C315.352 752.274 293.16 732.465 293.16 708.117V676.148C293.16 656.742 310.833 640.953 332.557 640.953H590.098C611.821 640.953 629.494 656.742 629.494 676.148V708.117C629.494 732.465 607.302 752.274 580.025 752.274Z" fill="#C2E1E5"/>
<path d="M367.585 214.976H314.631C313.682 214.975 312.773 214.597 312.102 213.926C311.431 213.256 311.054 212.346 311.053 211.397V158.439C311.054 157.49 311.431 156.58 312.102 155.91C312.773 155.239 313.682 154.861 314.631 154.86H367.585C368.533 154.861 369.443 155.239 370.114 155.91C370.784 156.58 371.162 157.49 371.163 158.439V211.397C371.162 212.346 370.784 213.256 370.114 213.926C369.443 214.597 368.533 214.975 367.585 214.976Z" fill="#D92863"/>
<path d="M447.731 214.976H394.777C393.829 214.975 392.919 214.597 392.248 213.926C391.578 213.256 391.2 212.346 391.199 211.397V158.439C391.2 157.49 391.578 156.58 392.248 155.91C392.919 155.239 393.829 154.861 394.777 154.86H447.731C448.68 154.861 449.589 155.239 450.26 155.91C450.931 156.58 451.308 157.49 451.309 158.439V211.397C451.308 212.346 450.931 213.256 450.26 213.926C449.589 214.597 448.68 214.975 447.731 214.976Z" fill="#C2E1E5"/>
<path d="M527.878 214.976H474.924C473.975 214.975 473.066 214.597 472.395 213.926C471.724 213.256 471.347 212.346 471.346 211.397V158.439C471.347 157.49 471.724 156.58 472.395 155.91C473.066 155.239 473.975 154.861 474.924 154.86H527.878C528.826 154.861 529.736 155.239 530.406 155.91C531.077 156.58 531.454 157.49 531.456 158.439V211.397C531.454 212.346 531.077 213.256 530.406 213.926C529.736 214.597 528.826 214.975 527.878 214.976Z" fill="#C2E1E5"/>
<path d="M608.024 214.976H555.07C554.122 214.975 553.212 214.597 552.541 213.926C551.871 213.256 551.493 212.346 551.492 211.397V158.439C551.493 157.49 551.871 156.58 552.541 155.91C553.212 155.239 554.122 154.861 555.07 154.86H608.024C608.973 154.861 609.882 155.239 610.553 155.91C611.224 156.58 611.601 157.49 611.602 158.439V211.397C611.601 212.346 611.224 213.256 610.553 213.926C609.882 214.597 608.973 214.975 608.024 214.976Z" fill="#C2E1E5"/>
<path d="M367.395 313.021H314.441C313.493 313.019 312.583 312.642 311.912 311.971C311.242 311.3 310.864 310.391 310.863 309.442V256.484C310.864 255.535 311.242 254.625 311.912 253.955C312.583 253.284 313.493 252.906 314.441 252.905H367.395C368.344 252.906 369.253 253.284 369.924 253.955C370.595 254.625 370.972 255.535 370.973 256.484V309.442C370.972 310.391 370.595 311.3 369.924 311.971C369.253 312.642 368.344 313.019 367.395 313.021Z" fill="#C2E1E5"/>
<path d="M447.542 313.021H394.588C393.639 313.019 392.73 312.642 392.059 311.971C391.388 311.3 391.011 310.391 391.01 309.442V256.484C391.011 255.535 391.388 254.625 392.059 253.955C392.73 253.284 393.639 252.906 394.588 252.905H447.542C448.49 252.906 449.4 253.284 450.07 253.955C450.741 254.625 451.119 255.535 451.12 256.484V309.442C451.119 310.391 450.741 311.3 450.07 311.971C449.4 312.642 448.49 313.019 447.542 313.021Z" fill="#C2E1E5"/>
<path d="M527.688 313.021H474.734C473.786 313.019 472.876 312.642 472.205 311.971C471.535 311.3 471.157 310.391 471.156 309.442V256.484C471.157 255.535 471.535 254.625 472.205 253.955C472.876 253.284 473.786 252.906 474.734 252.905H527.688C528.637 252.906 529.546 253.284 530.217 253.955C530.888 254.625 531.265 255.535 531.266 256.484V309.442C531.265 310.391 530.888 311.3 530.217 311.971C529.546 312.642 528.637 313.019 527.688 313.021Z" fill="#D92863"/>
<path d="M607.835 313.021H554.881C553.932 313.019 553.023 312.642 552.352 311.971C551.681 311.3 551.304 310.391 551.303 309.442V256.484C551.304 255.535 551.681 254.625 552.352 253.955C553.023 253.284 553.932 252.906 554.881 252.905H607.835C608.783 252.906 609.693 253.284 610.364 253.955C611.034 254.625 611.412 255.535 611.413 256.484V309.442C611.412 310.391 611.034 311.3 610.364 311.971C609.693 312.642 608.783 313.019 607.835 313.021Z" fill="#D92863"/>
<path d="M367.206 411.066H314.252C313.303 411.065 312.394 410.688 311.723 410.017C311.052 409.346 310.675 408.437 310.674 407.488V354.529C310.675 353.581 311.052 352.671 311.723 352C312.394 351.33 313.303 350.952 314.252 350.951H367.206C368.154 350.952 369.064 351.33 369.735 352C370.405 352.671 370.783 353.581 370.784 354.529V407.488C370.783 408.437 370.405 409.346 369.735 410.017C369.064 410.688 368.154 411.065 367.206 411.066Z" fill="#C2E1E5"/>
<path d="M447.352 411.066H394.398C393.45 411.065 392.54 410.688 391.869 410.017C391.199 409.346 390.821 408.437 390.82 407.488V354.529C390.821 353.581 391.199 352.671 391.869 352C392.54 351.33 393.45 350.952 394.398 350.951H447.352C448.301 350.952 449.21 351.33 449.881 352C450.552 352.671 450.929 353.581 450.93 354.529V407.488C450.929 408.437 450.552 409.346 449.881 410.017C449.21 410.688 448.301 411.065 447.352 411.066Z" fill="#C2E1E5"/>
<path d="M527.499 411.066H474.545C473.596 411.065 472.687 410.688 472.016 410.017C471.345 409.346 470.968 408.437 470.967 407.488V354.529C470.968 353.581 471.345 352.671 472.016 352C472.687 351.33 473.596 350.952 474.545 350.951H527.499C528.447 350.952 529.357 351.33 530.028 352C530.698 352.671 531.076 353.581 531.077 354.529V407.488C531.076 408.437 530.698 409.346 530.028 410.017C529.357 410.688 528.447 411.065 527.499 411.066Z" fill="#C2E1E5"/>
<path d="M607.645 411.066H554.691C553.743 411.065 552.833 410.688 552.163 410.017C551.492 409.346 551.114 408.437 551.113 407.488V354.529C551.114 353.581 551.492 352.671 552.163 352C552.833 351.33 553.743 350.952 554.691 350.951H607.645C608.594 350.952 609.503 351.33 610.174 352C610.845 352.671 611.222 353.581 611.223 354.529V407.488C611.222 408.437 610.845 409.346 610.174 410.017C609.503 410.688 608.594 411.065 607.645 411.066Z" fill="#C2E1E5"/>
<path d="M367.016 509.111H314.062C313.114 509.11 312.204 508.733 311.534 508.062C310.863 507.391 310.485 506.482 310.484 505.533V452.574C310.485 451.626 310.863 450.716 311.534 450.045C312.204 449.375 313.114 448.997 314.062 448.996H367.016C367.965 448.997 368.874 449.375 369.545 450.045C370.216 450.716 370.593 451.626 370.594 452.574V505.533C370.593 506.482 370.216 507.391 369.545 508.062C368.874 508.733 367.965 509.11 367.016 509.111Z" fill="#C2E1E5"/>
<path d="M447.163 509.111H394.209C393.26 509.11 392.351 508.733 391.68 508.062C391.009 507.391 390.632 506.482 390.631 505.533V452.574C390.632 451.626 391.009 450.716 391.68 450.045C392.351 449.375 393.26 448.997 394.209 448.996H447.163C448.111 448.997 449.021 449.375 449.692 450.045C450.362 450.716 450.74 451.626 450.741 452.574V505.533C450.74 506.482 450.362 507.391 449.692 508.062C449.021 508.733 448.111 509.11 447.163 509.111Z" fill="#C2E1E5"/>
<path d="M527.309 509.111H474.355C473.407 509.11 472.497 508.733 471.827 508.062C471.156 507.391 470.778 506.482 470.777 505.533V452.574C470.778 451.626 471.156 450.716 471.827 450.045C472.497 449.375 473.407 448.997 474.355 448.996H527.309C528.258 448.997 529.167 449.375 529.838 450.045C530.509 450.716 530.886 451.626 530.887 452.574V505.533C530.886 506.482 530.509 507.391 529.838 508.062C529.167 508.733 528.258 509.11 527.309 509.111Z" fill="#C2E1E5"/>
<path d="M607.458 509.111H554.504C553.555 509.11 552.646 508.733 551.975 508.062C551.304 507.391 550.927 506.482 550.926 505.533V452.574C550.927 451.626 551.304 450.716 551.975 450.045C552.646 449.375 553.555 448.997 554.504 448.996H607.458C608.406 448.997 609.316 449.375 609.987 450.045C610.657 450.716 611.035 451.626 611.036 452.574V505.533C611.035 506.482 610.657 507.391 609.987 508.062C609.316 508.733 608.406 509.11 607.458 509.111Z" fill="#C2E1E5"/>
<path d="M367.585 728.103H314.631C313.682 728.101 312.773 727.724 312.102 727.053C311.431 726.382 311.054 725.473 311.053 724.524V671.566C311.054 670.617 311.431 669.707 312.102 669.037C312.773 668.366 313.682 667.988 314.631 667.987H367.585C368.533 667.988 369.443 668.366 370.114 669.037C370.784 669.707 371.162 670.617 371.163 671.566V724.524C371.162 725.473 370.784 726.382 370.114 727.053C369.443 727.724 368.533 728.101 367.585 728.103Z" fill="white"/>
<path d="M447.731 728.103H394.777C393.829 728.101 392.919 727.724 392.248 727.053C391.578 726.382 391.2 725.473 391.199 724.524V671.566C391.2 670.617 391.578 669.707 392.248 669.037C392.919 668.366 393.829 667.988 394.777 667.987H447.731C448.68 667.988 449.589 668.366 450.26 669.037C450.931 669.707 451.308 670.617 451.309 671.566V724.524C451.308 725.473 450.931 726.382 450.26 727.053C449.589 727.724 448.68 728.101 447.731 728.103Z" fill="white"/>
<path d="M527.878 728.103H474.924C473.975 728.101 473.066 727.724 472.395 727.053C471.724 726.382 471.347 725.473 471.346 724.524V671.566C471.347 670.617 471.724 669.707 472.395 669.037C473.066 668.366 473.975 667.988 474.924 667.987H527.878C528.826 667.988 529.736 668.366 530.406 669.037C531.077 669.707 531.454 670.617 531.456 671.566V724.524C531.454 725.473 531.077 726.382 530.406 727.053C529.736 727.724 528.826 728.101 527.878 728.103Z" fill="white"/>
<path d="M608.024 728.103H555.07C554.122 728.101 553.212 727.724 552.541 727.053C551.871 726.382 551.493 725.473 551.492 724.524V671.566C551.493 670.617 551.871 669.707 552.541 669.037C553.212 668.366 554.122 667.988 555.07 667.987H608.024C608.973 667.988 609.882 668.366 610.553 669.037C611.224 669.707 611.601 670.617 611.602 671.566V724.524C611.601 725.473 611.224 726.382 610.553 727.053C609.882 727.724 608.973 728.101 608.024 728.103Z" fill="white"/>
<path d="M435.377 616.46C439.329 616.46 442.533 613.256 442.533 609.303C442.533 605.351 439.329 602.146 435.377 602.146C431.425 602.146 428.221 605.351 428.221 609.303C428.221 613.256 431.425 616.46 435.377 616.46Z" fill="#C2E1E5"/>
<path d="M461.138 616.46C465.09 616.46 468.294 613.256 468.294 609.303C468.294 605.351 465.09 602.146 461.138 602.146C457.186 602.146 453.982 605.351 453.982 609.303C453.982 613.256 457.186 616.46 461.138 616.46Z" fill="#C2E1E5"/>
<path d="M486.9 616.46C490.852 616.46 494.056 613.256 494.056 609.303C494.056 605.351 490.852 602.146 486.9 602.146C482.948 602.146 479.744 605.351 479.744 609.303C479.744 613.256 482.948 616.46 486.9 616.46Z" fill="#C2E1E5"/>
<path d="M921.219 782.157H1.43763C1.14337 782.157 0.861164 782.04 0.653091 781.832C0.445018 781.624 0.328125 781.341 0.328125 781.047C0.328125 780.753 0.445018 780.471 0.653091 780.263C0.861164 780.054 1.14337 779.938 1.43763 779.938H921.219C921.513 779.938 921.795 780.054 922.003 780.263C922.211 780.471 922.328 780.753 922.328 781.047C922.328 781.341 922.211 781.624 922.003 781.832C921.795 782.04 921.513 782.157 921.219 782.157Z" fill="#CBCBCB"/>
<path d="M362.432 563.677C363.929 562.181 365.079 560.374 365.803 558.385C366.526 556.396 366.804 554.272 366.618 552.163C366.432 550.055 365.786 548.012 364.725 546.181C363.665 544.349 362.215 542.772 360.479 541.561L374.454 492.04L348.975 500.144L339.611 545.927C337.77 548.979 337.112 552.599 337.762 556.104C338.412 559.608 340.325 562.752 343.138 564.939C345.951 567.127 349.468 568.207 353.024 567.975C356.58 567.742 359.928 566.213 362.432 563.677Z" fill="#FFB7B7"/>
<path d="M369.676 533.324C369.221 533.411 368.758 533.45 368.295 533.441L343.853 532.951C342.933 532.932 342.028 532.718 341.197 532.323C340.366 531.927 339.63 531.359 339.036 530.656C338.441 529.954 338.004 529.133 337.752 528.248C337.5 527.363 337.439 526.435 337.574 525.524L362.369 357.984C363.109 353.138 365.557 348.717 369.272 345.518C372.987 342.32 377.723 340.556 382.625 340.545C385.72 340.553 388.773 341.264 391.553 342.624C394.333 343.985 396.768 345.959 398.673 348.399C400.579 350.838 401.905 353.678 402.552 356.705C403.199 359.732 403.149 362.867 402.408 365.872L384.832 437.06L374.866 527.672C374.721 529.046 374.138 530.337 373.204 531.355C372.27 532.372 371.033 533.063 369.676 533.324Z" fill="#3B6E81"/>
<path d="M379.897 797.807H393.499L399.971 745.336L379.895 745.337L379.897 797.807Z" fill="#FFB7B7"/>
<path d="M376.426 793.366L403.214 793.365H403.215C407.742 793.365 412.084 795.164 415.286 798.366C418.487 801.568 420.286 805.91 420.286 810.438V810.993L376.427 810.994L376.426 793.366Z" fill="#2F2E41"/>
<path d="M437.898 793.389L451.416 794.905L463.694 743.482L443.743 741.245L437.898 793.389Z" fill="#FFB7B7"/>
<path d="M434.944 788.589L461.565 791.574L461.567 791.574C466.066 792.079 470.18 794.35 473.005 797.889C475.83 801.428 477.133 805.943 476.629 810.443L476.567 810.994L432.98 806.107L434.944 788.589Z" fill="#2F2E41"/>
<path d="M367.13 505.814C367.13 505.814 348.482 547.101 364.95 573.918L374.761 782.711H397.288L419.141 614.051L457.974 663.983L434.315 780.522L461.866 782.069L500.135 663.983C500.135 663.983 470.736 533.772 461.026 530.637L454.646 500.871L367.13 505.814Z" fill="#2F2E41"/>
<path d="M358.83 542.062C358.83 542.062 342.03 561.344 386.41 568.002C430.791 574.66 477.39 564.673 478.499 551.358C479.609 538.043 358.83 542.062 358.83 542.062Z" fill="#CBCBCB"/>
<path d="M581.304 302.866C581.235 304.748 580.755 306.593 579.896 308.269C579.038 309.945 577.822 311.413 576.335 312.569C574.848 313.725 573.125 314.54 571.289 314.958C569.452 315.376 567.547 315.386 565.706 314.988L548.93 339.182L531.742 332.573L555.912 298.739C556.786 295.69 558.748 293.069 561.426 291.37C564.104 289.672 567.311 289.015 570.441 289.523C573.571 290.032 576.406 291.671 578.408 294.13C580.41 296.589 581.44 299.698 581.304 302.866Z" fill="#FFB7B7"/>
<path d="M439.431 333.994L415.712 323.263L385.323 325.435C385.323 325.435 348.687 368.273 363.11 409.328L354.234 552.468C410.819 568.002 436.541 538.866 477.39 551.358L464.772 392.275L439.431 333.994Z" fill="#3B6E81"/>
<path d="M423.578 344.417L439.43 333.994C439.43 333.994 461.45 330.665 470.252 339.205C470.252 339.205 500.127 341.706 507.342 349.164L515.287 350.955L541.678 316.777L557.828 325.553L534.529 388.801L464.772 392.275L423.578 344.417Z" fill="#3B6E81"/>
<path d="M429.048 311.225C447.192 301.306 453.86 278.556 443.942 260.41C434.024 242.265 411.275 235.596 393.131 245.515C374.988 255.435 368.32 278.185 378.238 296.331C388.156 314.476 410.905 321.144 429.048 311.225Z" fill="#FFB7B7"/>
<path d="M378.705 249.096C385.388 237.075 393.74 229.292 407.49 229.573C421.24 229.854 433.134 229.31 439.32 241.594C440.955 238.532 441.774 235.101 441.698 231.631C443.566 232.844 445.038 234.577 445.933 236.616C446.828 238.656 447.106 240.913 446.734 243.109C447.937 242.404 448.945 241.409 449.663 240.214C450.382 239.018 450.789 237.662 450.848 236.268C455.437 237.796 456.63 244.263 454.308 248.506C451.986 252.749 447.432 255.202 443.063 257.276C438.694 259.35 440.711 270.32 437.858 274.225C435.867 276.951 434.956 280.291 433.614 283.389C433.558 283.511 433.462 283.611 433.343 283.673C430.266 285.388 428.324 288.453 428.868 291.934C428.932 292.195 428.917 292.469 428.824 292.721C424.929 300.059 420.725 307.736 413.666 312.115C408.001 315.536 401.217 316.585 394.784 315.034C387.568 313.309 381.33 308.524 376.832 302.624C372.334 296.723 369.44 289.75 367.266 282.656C365.338 276.363 363.935 269.634 365.464 263.232C366.993 256.83 372.173 250.902 378.736 250.408" fill="#2F2E41"/>
</g>
<defs>
<clipPath id="clip0_285_1064">
<rect width="922" height="810" fill="white" transform="translate(0.328125 0.994141)"/>
</clipPath>
</defs>
</svg>
