<svg width="773" height="388" viewBox="0 0 773 388" fill="none" xmlns="http://www.w3.org/2000/svg">
<g clip-path="url(#clip0_168_18)">
<rect x="0.724609" y="0.5" width="772" height="387" rx="20" fill="white"/>
<path opacity="0.5" d="M42.3027 -55.75C-31.564 -55.75 -91.4492 4.1352 -91.4492 78.002C-91.4492 151.869 -31.564 211.754 42.3027 211.754C116.169 211.754 176.055 151.869 176.055 78.002C176.055 4.1352 116.169 -55.75 42.3027 -55.75Z" fill="#46879F"/>
<path opacity="0.5" d="M742.725 269.553C694.154 269.553 654.777 308.93 654.777 357.5C654.777 406.071 694.154 445.448 742.725 445.448C791.296 445.448 830.673 406.071 830.673 357.5C830.673 308.93 791.296 269.553 742.725 269.553Z" fill="#46879F"/>
</g>
<defs>
<clipPath id="clip0_168_18">
<rect x="0.724609" y="0.5" width="772" height="387" rx="20" fill="white"/>
</clipPath>
</defs>
</svg>
