<svg width="98" height="34" viewBox="0 0 98 34" fill="none" xmlns="http://www.w3.org/2000/svg">
<path d="M40.1388 12.2179C39.3578 11.4369 39.3578 10.1705 40.1388 9.3895L48.1142 1.41416C48.8952 0.633108 50.1615 0.633108 50.9426 1.41416L59.0609 9.53251C59.842 10.3136 59.842 11.5799 59.0609 12.3609L51.0856 20.3363C50.3046 21.1173 49.0382 21.1173 48.2572 20.3363L40.1388 12.2179Z" fill="#EBEBEB"/>
<rect x="0.724609" y="6" width="97" height="28" rx="5" fill="#EBEBEB"/>
<path d="M16.25 24.4745C16.25 23.3745 17.15 22.4745 18.275 22.4995C19.05 22.4995 19.75 22.9495 20.075 23.6495M20.275 24.5245C20.275 25.6245 19.375 26.5245 18.25 26.4995C17.475 26.4995 16.775 26.0495 16.45 25.3495" stroke="#FB3B3B" stroke-width="0.65" stroke-linecap="round" stroke-linejoin="round"/>
<path d="M19.4238 25.1246L20.3238 24.4746L20.7238 25.5746" stroke="#FB3B3B" stroke-width="0.65" stroke-linecap="round" stroke-linejoin="round"/>
<path d="M17.0988 23.9002L16.1988 24.5752L15.7988 23.4502" stroke="#FB3B3B" stroke-width="0.65" stroke-linecap="round" stroke-linejoin="round"/>
<path d="M16.9746 21.6002V15.9752C16.9746 15.7002 16.7496 15.4752 16.4746 15.4502H12.2496C11.9496 15.4502 11.7246 15.6752 11.7246 15.9502V24.4002C11.7246 24.6752 11.9496 24.9252 12.2246 24.9252H15.0746" stroke="#FB3B3B" stroke-width="0.65" stroke-linecap="round" stroke-linejoin="round"/>
<path d="M14.3496 17.2002V18.4502" stroke="#FB3B3B" stroke-width="0.65" stroke-linecap="round" stroke-linejoin="round"/>
<path d="M14.9746 17.8252H13.7246" stroke="#FB3B3B" stroke-width="0.65" stroke-linecap="round" stroke-linejoin="round"/>
<path d="M14.9746 22.5254H13.7246" stroke="#FB3B3B" stroke-width="0.65" stroke-linecap="round" stroke-linejoin="round"/>
<path d="M11.7246 20.2002H16.9746" stroke="#FB3B3B" stroke-width="0.65" stroke-linecap="round" stroke-linejoin="round"/>
<path d="M15.3988 14.5H13.2988V15.45H15.3988V14.5Z" stroke="#FB3B3B" stroke-width="0.65" stroke-linecap="round" stroke-linejoin="round"/>
<path d="M30.1966 22.5L28.6846 20.38C28.8819 20.3267 29.0606 20.252 29.2206 20.156C29.3859 20.0547 29.5273 19.9347 29.6446 19.796C29.7619 19.652 29.8526 19.4893 29.9166 19.308C29.9859 19.1213 30.0206 18.9107 30.0206 18.676C30.0206 18.404 29.9726 18.1587 29.8766 17.94C29.7806 17.716 29.6419 17.5293 29.4606 17.38C29.2846 17.2253 29.0659 17.108 28.8046 17.028C28.5486 16.9427 28.2606 16.9 27.9406 16.9H25.4446V22.5H26.4286V20.548H27.6606L29.0366 22.5H30.1966ZM29.0206 18.732C29.0206 19.02 28.9166 19.2493 28.7086 19.42C28.5006 19.5907 28.2206 19.676 27.8686 19.676H26.4286V17.796H27.8606C28.2286 17.796 28.5139 17.876 28.7166 18.036C28.9193 18.1907 29.0206 18.4227 29.0206 18.732ZM31.7717 20.732H34.8757C34.8811 20.684 34.8837 20.6387 34.8837 20.596C34.8891 20.5533 34.8917 20.5107 34.8917 20.468C34.8917 20.164 34.8491 19.8733 34.7637 19.596C34.6784 19.3187 34.5504 19.076 34.3797 18.868C34.2144 18.66 34.0037 18.4947 33.7477 18.372C33.4971 18.2493 33.2037 18.188 32.8677 18.188C32.5637 18.188 32.2864 18.2467 32.0357 18.364C31.7851 18.4813 31.5664 18.6413 31.3797 18.844C31.1984 19.0413 31.0571 19.2733 30.9557 19.54C30.8544 19.8067 30.8037 20.092 30.8037 20.396C30.8037 20.7267 30.8597 21.028 30.9717 21.3C31.0837 21.5667 31.2357 21.796 31.4277 21.988C31.6251 22.18 31.8544 22.3293 32.1157 22.436C32.3824 22.5427 32.6677 22.596 32.9717 22.596C33.3611 22.596 33.6944 22.524 33.9717 22.38C34.2544 22.236 34.4971 22.044 34.6997 21.804L34.1317 21.3C33.9611 21.4653 33.7877 21.5907 33.6117 21.676C33.4357 21.7613 33.2277 21.804 32.9877 21.804C32.6731 21.804 32.4064 21.7133 32.1877 21.532C31.9691 21.3453 31.8304 21.0787 31.7717 20.732ZM31.7637 20.092C31.8064 19.7613 31.9237 19.4947 32.1157 19.292C32.3131 19.084 32.5611 18.98 32.8597 18.98C33.0197 18.98 33.1611 19.0093 33.2837 19.068C33.4117 19.1267 33.5211 19.2067 33.6117 19.308C33.7024 19.404 33.7744 19.5213 33.8277 19.66C33.8811 19.7933 33.9157 19.9373 33.9317 20.092H31.7637ZM40.2319 20.388C40.2319 20.036 40.1759 19.724 40.0639 19.452C39.9519 19.18 39.8025 18.9507 39.6159 18.764C39.4345 18.572 39.2265 18.428 38.9919 18.332C38.7572 18.236 38.5145 18.188 38.2639 18.188C37.9225 18.188 37.6372 18.2653 37.4079 18.42C37.1785 18.5693 36.9865 18.756 36.8319 18.98V18.276H35.8639V23.78H36.8319V21.844C36.9812 22.0413 37.1705 22.2147 37.3999 22.364C37.6292 22.5133 37.9172 22.588 38.2639 22.588C38.5145 22.588 38.7572 22.54 38.9919 22.444C39.2319 22.348 39.4425 22.2067 39.6239 22.02C39.8105 21.828 39.9572 21.596 40.0639 21.324C40.1759 21.052 40.2319 20.74 40.2319 20.388ZM39.2479 20.388C39.2479 20.596 39.2159 20.7853 39.1519 20.956C39.0879 21.1213 38.9999 21.2627 38.8879 21.38C38.7812 21.4973 38.6532 21.588 38.5039 21.652C38.3599 21.716 38.2052 21.748 38.0399 21.748C37.8745 21.748 37.7172 21.716 37.5679 21.652C37.4185 21.588 37.2879 21.4973 37.1759 21.38C37.0639 21.2573 36.9732 21.1133 36.9039 20.948C36.8399 20.7827 36.8079 20.596 36.8079 20.388C36.8079 20.18 36.8399 19.9933 36.9039 19.828C36.9732 19.6627 37.0639 19.5213 37.1759 19.404C37.2879 19.2813 37.4185 19.188 37.5679 19.124C37.7172 19.06 37.8745 19.028 38.0399 19.028C38.2052 19.028 38.3599 19.06 38.5039 19.124C38.6532 19.188 38.7812 19.2787 38.8879 19.396C38.9999 19.5133 39.0879 19.6573 39.1519 19.828C39.2159 19.9933 39.2479 20.18 39.2479 20.388ZM42.2472 22.5V16.66H41.2792V22.5H42.2472ZM47.0563 22.5V19.996C47.0563 19.4307 46.9043 18.9933 46.6003 18.684C46.2963 18.3693 45.8296 18.212 45.2003 18.212C44.8536 18.212 44.5576 18.244 44.3123 18.308C44.067 18.372 43.827 18.4573 43.5923 18.564L43.8563 19.34C44.0483 19.26 44.2376 19.196 44.4243 19.148C44.611 19.1 44.8243 19.076 45.0643 19.076C45.4003 19.076 45.6563 19.1533 45.8323 19.308C46.0136 19.4627 46.1043 19.6867 46.1043 19.98V20.084C45.939 20.0307 45.7656 19.988 45.5843 19.956C45.4083 19.924 45.1923 19.908 44.9363 19.908C44.691 19.908 44.4616 19.9373 44.2483 19.996C44.0403 20.0493 43.859 20.132 43.7043 20.244C43.555 20.356 43.4376 20.4973 43.3523 20.668C43.267 20.8387 43.2243 21.0387 43.2243 21.268V21.284C43.2243 21.4973 43.2643 21.6867 43.3443 21.852C43.4296 22.012 43.539 22.148 43.6723 22.26C43.811 22.3667 43.971 22.4467 44.1523 22.5C44.3336 22.5587 44.5256 22.588 44.7283 22.588C45.0483 22.588 45.3203 22.5293 45.5443 22.412C45.7683 22.2947 45.9523 22.1507 46.0963 21.98V22.5H47.0563ZM46.1203 20.972C46.1203 21.1053 46.091 21.228 46.0323 21.34C45.979 21.4467 45.9016 21.54 45.8003 21.62C45.699 21.6947 45.579 21.7533 45.4403 21.796C45.307 21.8387 45.1603 21.86 45.0003 21.86C44.771 21.86 44.5763 21.8067 44.4163 21.7C44.2616 21.5933 44.1843 21.4387 44.1843 21.236V21.22C44.1843 21.0013 44.2696 20.8333 44.4403 20.716C44.611 20.5987 44.8483 20.54 45.1523 20.54C45.339 20.54 45.515 20.556 45.6803 20.588C45.851 20.62 45.9976 20.66 46.1203 20.708V20.972ZM51.8876 21.804L51.3036 21.228C51.1489 21.3827 50.9836 21.5107 50.8076 21.612C50.6369 21.708 50.4369 21.756 50.2076 21.756C50.0209 21.756 49.8503 21.7213 49.6956 21.652C49.5409 21.5773 49.4076 21.4787 49.2956 21.356C49.1836 21.2333 49.0956 21.0893 49.0316 20.924C48.9729 20.7587 48.9436 20.58 48.9436 20.388C48.9436 20.2013 48.9729 20.028 49.0316 19.868C49.0956 19.7027 49.1809 19.5587 49.2876 19.436C49.3943 19.3133 49.5223 19.2173 49.6716 19.148C49.8209 19.0733 49.9836 19.036 50.1596 19.036C50.4049 19.036 50.6103 19.0867 50.7756 19.188C50.9463 19.284 51.1063 19.4093 51.2556 19.564L51.8556 18.916C51.6583 18.6973 51.4263 18.5213 51.1596 18.388C50.8983 18.2547 50.5676 18.188 50.1676 18.188C49.8529 18.188 49.5596 18.2467 49.2876 18.364C49.0209 18.4813 48.7889 18.6413 48.5916 18.844C48.3996 19.0467 48.2476 19.2813 48.1356 19.548C48.0289 19.8147 47.9756 20.1 47.9756 20.404C47.9756 20.708 48.0289 20.9933 48.1356 21.26C48.2476 21.5213 48.3996 21.7533 48.5916 21.956C48.7889 22.1533 49.0209 22.3107 49.2876 22.428C49.5543 22.54 49.8449 22.596 50.1596 22.596C50.5703 22.596 50.9089 22.524 51.1756 22.38C51.4423 22.2307 51.6796 22.0387 51.8876 21.804ZM53.3967 20.732H56.5007C56.5061 20.684 56.5087 20.6387 56.5087 20.596C56.5141 20.5533 56.5167 20.5107 56.5167 20.468C56.5167 20.164 56.4741 19.8733 56.3887 19.596C56.3034 19.3187 56.1754 19.076 56.0047 18.868C55.8394 18.66 55.6287 18.4947 55.3727 18.372C55.1221 18.2493 54.8287 18.188 54.4927 18.188C54.1887 18.188 53.9114 18.2467 53.6607 18.364C53.4101 18.4813 53.1914 18.6413 53.0047 18.844C52.8234 19.0413 52.6821 19.2733 52.5807 19.54C52.4794 19.8067 52.4287 20.092 52.4287 20.396C52.4287 20.7267 52.4847 21.028 52.5967 21.3C52.7087 21.5667 52.8607 21.796 53.0527 21.988C53.2501 22.18 53.4794 22.3293 53.7407 22.436C54.0074 22.5427 54.2927 22.596 54.5967 22.596C54.9861 22.596 55.3194 22.524 55.5967 22.38C55.8794 22.236 56.1221 22.044 56.3247 21.804L55.7567 21.3C55.5861 21.4653 55.4127 21.5907 55.2367 21.676C55.0607 21.7613 54.8527 21.804 54.6127 21.804C54.2981 21.804 54.0314 21.7133 53.8127 21.532C53.5941 21.3453 53.4554 21.0787 53.3967 20.732ZM53.3887 20.092C53.4314 19.7613 53.5487 19.4947 53.7407 19.292C53.9381 19.084 54.1861 18.98 54.4847 18.98C54.6447 18.98 54.7861 19.0093 54.9087 19.068C55.0367 19.1267 55.1461 19.2067 55.2367 19.308C55.3274 19.404 55.3994 19.5213 55.4527 19.66C55.5061 19.7933 55.5407 19.9373 55.5567 20.092H53.3887ZM64.2553 20.388C64.2553 20.036 64.1993 19.724 64.0873 19.452C63.9753 19.18 63.826 18.9507 63.6393 18.764C63.458 18.572 63.25 18.428 63.0153 18.332C62.7806 18.236 62.538 18.188 62.2873 18.188C61.946 18.188 61.6606 18.2653 61.4313 18.42C61.202 18.5693 61.01 18.756 60.8553 18.98V16.66H59.8873V22.5H60.8553V21.844C61.0046 22.0413 61.194 22.2147 61.4233 22.364C61.6526 22.5133 61.9406 22.588 62.2873 22.588C62.538 22.588 62.7806 22.54 63.0153 22.444C63.2553 22.348 63.466 22.2067 63.6473 22.02C63.834 21.828 63.9806 21.596 64.0873 21.324C64.1993 21.052 64.2553 20.74 64.2553 20.388ZM63.2713 20.388C63.2713 20.596 63.2393 20.7853 63.1753 20.956C63.1113 21.1213 63.0233 21.2627 62.9113 21.38C62.8046 21.4973 62.6766 21.588 62.5273 21.652C62.3833 21.716 62.2286 21.748 62.0633 21.748C61.898 21.748 61.7406 21.716 61.5913 21.652C61.442 21.588 61.3113 21.4973 61.1993 21.38C61.0873 21.2573 60.9966 21.1133 60.9273 20.948C60.8633 20.7827 60.8313 20.596 60.8313 20.388C60.8313 20.18 60.8633 19.9933 60.9273 19.828C60.9966 19.6627 61.0873 19.5213 61.1993 19.404C61.3113 19.2813 61.442 19.188 61.5913 19.124C61.7406 19.06 61.898 19.028 62.0633 19.028C62.2286 19.028 62.3833 19.06 62.5273 19.124C62.6766 19.188 62.8046 19.2787 62.9113 19.396C63.0233 19.5133 63.1113 19.6573 63.1753 19.828C63.2393 19.9933 63.2713 20.18 63.2713 20.388ZM68.7907 22.5V19.996C68.7907 19.4307 68.6387 18.9933 68.3347 18.684C68.0307 18.3693 67.564 18.212 66.9347 18.212C66.588 18.212 66.292 18.244 66.0467 18.308C65.8013 18.372 65.5613 18.4573 65.3267 18.564L65.5907 19.34C65.7827 19.26 65.972 19.196 66.1587 19.148C66.3453 19.1 66.5587 19.076 66.7987 19.076C67.1347 19.076 67.3907 19.1533 67.5667 19.308C67.748 19.4627 67.8387 19.6867 67.8387 19.98V20.084C67.6733 20.0307 67.5 19.988 67.3187 19.956C67.1427 19.924 66.9267 19.908 66.6707 19.908C66.4253 19.908 66.196 19.9373 65.9827 19.996C65.7747 20.0493 65.5933 20.132 65.4387 20.244C65.2893 20.356 65.172 20.4973 65.0867 20.668C65.0013 20.8387 64.9587 21.0387 64.9587 21.268V21.284C64.9587 21.4973 64.9987 21.6867 65.0787 21.852C65.164 22.012 65.2733 22.148 65.4067 22.26C65.5453 22.3667 65.7053 22.4467 65.8867 22.5C66.068 22.5587 66.26 22.588 66.4627 22.588C66.7827 22.588 67.0547 22.5293 67.2787 22.412C67.5027 22.2947 67.6867 22.1507 67.8307 21.98V22.5H68.7907ZM67.8547 20.972C67.8547 21.1053 67.8253 21.228 67.7667 21.34C67.7133 21.4467 67.636 21.54 67.5347 21.62C67.4333 21.6947 67.3133 21.7533 67.1747 21.796C67.0413 21.8387 66.8947 21.86 66.7347 21.86C66.5053 21.86 66.3107 21.8067 66.1507 21.7C65.996 21.5933 65.9187 21.4387 65.9187 21.236V21.22C65.9187 21.0013 66.004 20.8333 66.1747 20.716C66.3453 20.5987 66.5827 20.54 66.8867 20.54C67.0733 20.54 67.2493 20.556 67.4147 20.588C67.5853 20.62 67.732 20.66 67.8547 20.708V20.972ZM71.0709 19.108H72.2069V18.276H71.0709V17.116H70.1029V18.276H69.5669V19.108H70.1029V21.332C70.1029 21.5667 70.1323 21.764 70.1909 21.924C70.2496 22.0787 70.3323 22.204 70.4389 22.3C70.5509 22.396 70.6816 22.4653 70.8309 22.508C70.9803 22.5507 71.1429 22.572 71.3189 22.572C71.5003 22.572 71.6603 22.5533 71.7989 22.516C71.9376 22.4787 72.0683 22.4253 72.1909 22.356V21.564C71.9989 21.66 71.7989 21.708 71.5909 21.708C71.4256 21.708 71.2976 21.668 71.2069 21.588C71.1163 21.5027 71.0709 21.3667 71.0709 21.18V19.108ZM74.3522 19.108H75.4882V18.276H74.3522V17.116H73.3842V18.276H72.8482V19.108H73.3842V21.332C73.3842 21.5667 73.4135 21.764 73.4722 21.924C73.5308 22.0787 73.6135 22.204 73.7202 22.3C73.8322 22.396 73.9628 22.4653 74.1122 22.508C74.2615 22.5507 74.4242 22.572 74.6002 22.572C74.7815 22.572 74.9415 22.5533 75.0802 22.516C75.2188 22.4787 75.3495 22.4253 75.4722 22.356V21.564C75.2802 21.66 75.0802 21.708 74.8722 21.708C74.7068 21.708 74.5788 21.668 74.4882 21.588C74.3975 21.5027 74.3522 21.3667 74.3522 21.18V19.108ZM77.0842 20.732H80.1882C80.1936 20.684 80.1962 20.6387 80.1962 20.596C80.2016 20.5533 80.2042 20.5107 80.2042 20.468C80.2042 20.164 80.1616 19.8733 80.0762 19.596C79.9909 19.3187 79.8629 19.076 79.6922 18.868C79.5269 18.66 79.3162 18.4947 79.0602 18.372C78.8096 18.2493 78.5162 18.188 78.1802 18.188C77.8762 18.188 77.5989 18.2467 77.3482 18.364C77.0976 18.4813 76.8789 18.6413 76.6922 18.844C76.5109 19.0413 76.3696 19.2733 76.2682 19.54C76.1669 19.8067 76.1162 20.092 76.1162 20.396C76.1162 20.7267 76.1722 21.028 76.2842 21.3C76.3962 21.5667 76.5482 21.796 76.7402 21.988C76.9376 22.18 77.1669 22.3293 77.4282 22.436C77.6949 22.5427 77.9802 22.596 78.2842 22.596C78.6736 22.596 79.0069 22.524 79.2842 22.38C79.5669 22.236 79.8096 22.044 80.0122 21.804L79.4442 21.3C79.2736 21.4653 79.1002 21.5907 78.9242 21.676C78.7482 21.7613 78.5402 21.804 78.3002 21.804C77.9856 21.804 77.7189 21.7133 77.5002 21.532C77.2816 21.3453 77.1429 21.0787 77.0842 20.732ZM77.0762 20.092C77.1189 19.7613 77.2362 19.4947 77.4282 19.292C77.6256 19.084 77.8736 18.98 78.1722 18.98C78.3322 18.98 78.4736 19.0093 78.5962 19.068C78.7242 19.1267 78.8336 19.2067 78.9242 19.308C79.0149 19.404 79.0869 19.5213 79.1402 19.66C79.1936 19.7933 79.2282 19.9373 79.2442 20.092H77.0762ZM82.1444 20.892C82.1444 20.6147 82.179 20.372 82.2484 20.164C82.3177 19.9507 82.4164 19.7747 82.5444 19.636C82.6724 19.4973 82.8244 19.3933 83.0004 19.324C83.1764 19.2547 83.371 19.22 83.5844 19.22H83.6404V18.196C83.267 18.18 82.9577 18.268 82.7124 18.46C82.467 18.652 82.2777 18.908 82.1444 19.228V18.276H81.1764V22.5H82.1444V20.892ZM88.417 18.276H87.409L86.313 21.412L85.113 18.276H84.081L85.841 22.5C85.761 22.6867 85.6757 22.8147 85.585 22.884C85.4944 22.9533 85.3797 22.988 85.241 22.988C85.1397 22.988 85.041 22.972 84.945 22.94C84.8544 22.9133 84.7637 22.876 84.673 22.828L84.345 23.548C84.4944 23.628 84.6464 23.6893 84.801 23.732C84.961 23.78 85.1424 23.804 85.345 23.804C85.5157 23.804 85.6677 23.7827 85.801 23.74C85.9344 23.6973 86.057 23.628 86.169 23.532C86.281 23.4413 86.3824 23.3213 86.473 23.172C86.5637 23.0227 86.6517 22.8387 86.737 22.62L88.417 18.276Z" fill="#FB3B3B"/>
</svg>
