<svg width="88" height="31" viewBox="0 0 88 31" fill="none" xmlns="http://www.w3.org/2000/svg">
<path d="M30.0138 12.5587C29.2328 11.7777 29.2328 10.5114 30.0138 9.73032L37.9892 1.75498C38.7702 0.973928 40.0365 0.973928 40.8176 1.75498L48.9359 9.87333C49.717 10.6544 49.717 11.9207 48.9359 12.7018L40.9606 20.6771C40.1796 21.4581 38.9132 21.4581 38.1322 20.6771L30.0138 12.5587Z" fill="#EBEBEB"/>
<rect x="0.599609" y="6.34082" width="87" height="24" rx="5" fill="#EBEBEB"/>
<rect width="69" height="13" transform="translate(9.59961 11.3408)" fill="#EBEBEB"/>
<g clip-path="url(#clip0_345_443)">
<path d="M19.7832 16.2402V18.8402" stroke="#2A8908" stroke-width="0.75" stroke-linecap="round" stroke-linejoin="round"/>
<path d="M18.4824 19.5636V15.5192C18.4824 15.2001 18.2294 14.9414 17.9172 14.9414H12.5476C12.2355 14.9414 11.9824 15.2001 11.9824 15.5192V19.5636C11.9824 19.8827 12.2355 20.1414 12.5476 20.1414H17.9172C18.2294 20.1414 18.4824 19.8827 18.4824 19.5636Z" stroke="#2A8908" stroke-width="0.75" stroke-linecap="round" stroke-linejoin="round"/>
<path d="M13.2832 18.8402V16.2402" stroke="#2A8908" stroke-width="0.75" stroke-linecap="round" stroke-linejoin="round"/>
<path d="M14.5996 18.9408V16.3408" stroke="#2A8908" stroke-width="0.75" stroke-linecap="round" stroke-linejoin="round"/>
<path d="M15.916 19.0414V16.4414" stroke="#2A8908" stroke-width="0.75" stroke-linecap="round" stroke-linejoin="round"/>
<path d="M17.2344 19.141V16.541" stroke="#2A8908" stroke-width="0.75" stroke-linecap="round" stroke-linejoin="round"/>
</g>
<path d="M30.3116 19.0648V16.7128H27.9276V17.5688H29.3596V18.6168C29.1889 18.7448 28.9863 18.8488 28.7516 18.9288C28.5223 19.0035 28.2743 19.0408 28.0076 19.0408C27.7196 19.0408 27.4583 18.9902 27.2236 18.8888C26.9943 18.7875 26.7943 18.6488 26.6236 18.4728C26.4583 18.2915 26.3303 18.0782 26.2396 17.8328C26.1489 17.5875 26.1036 17.3208 26.1036 17.0328C26.1036 16.7608 26.1489 16.5048 26.2396 16.2648C26.3356 16.0248 26.4636 15.8142 26.6236 15.6328C26.7889 15.4515 26.9809 15.3102 27.1996 15.2088C27.4236 15.1022 27.6636 15.0488 27.9196 15.0488C28.0956 15.0488 28.2556 15.0648 28.3996 15.0968C28.5489 15.1235 28.6849 15.1635 28.8076 15.2168C28.9303 15.2648 29.0476 15.3262 29.1596 15.4008C29.2716 15.4755 29.3809 15.5582 29.4876 15.6488L30.1116 14.9048C29.9676 14.7822 29.8183 14.6755 29.6636 14.5848C29.5143 14.4888 29.3543 14.4088 29.1836 14.3448C29.0129 14.2808 28.8263 14.2328 28.6236 14.2008C28.4263 14.1635 28.2049 14.1448 27.9596 14.1448C27.5383 14.1448 27.1489 14.2222 26.7916 14.3768C26.4396 14.5315 26.1356 14.7422 25.8796 15.0088C25.6236 15.2702 25.4236 15.5768 25.2796 15.9288C25.1409 16.2808 25.0716 16.6542 25.0716 17.0488C25.0716 17.4595 25.1409 17.8408 25.2796 18.1928C25.4183 18.5448 25.6129 18.8515 25.8636 19.1128C26.1196 19.3688 26.4263 19.5715 26.7836 19.7208C27.1409 19.8648 27.5383 19.9368 27.9756 19.9368C28.2209 19.9368 28.4556 19.9128 28.6796 19.8648C28.9036 19.8222 29.1116 19.7608 29.3036 19.6808C29.5009 19.6008 29.6823 19.5075 29.8476 19.4008C30.0183 19.2942 30.1729 19.1822 30.3116 19.0648ZM35.753 17.7288C35.753 17.4248 35.697 17.1395 35.585 16.8728C35.473 16.6062 35.3157 16.3742 35.113 16.1768C34.9157 15.9742 34.6784 15.8168 34.401 15.7048C34.129 15.5875 33.8304 15.5288 33.505 15.5288C33.1797 15.5288 32.8784 15.5875 32.601 15.7048C32.329 15.8222 32.0917 15.9822 31.889 16.1848C31.6917 16.3822 31.5344 16.6168 31.417 16.8888C31.305 17.1555 31.249 17.4408 31.249 17.7448C31.249 18.0488 31.305 18.3342 31.417 18.6008C31.529 18.8622 31.6837 19.0942 31.881 19.2968C32.0837 19.4942 32.321 19.6515 32.593 19.7688C32.8704 19.8808 33.169 19.9368 33.489 19.9368C33.8144 19.9368 34.1157 19.8782 34.393 19.7608C34.6704 19.6435 34.9077 19.4862 35.105 19.2888C35.3077 19.0862 35.465 18.8515 35.577 18.5848C35.6944 18.3182 35.753 18.0328 35.753 17.7288ZM34.785 17.7448C34.785 17.9315 34.7557 18.1075 34.697 18.2728C34.6384 18.4328 34.553 18.5742 34.441 18.6968C34.329 18.8195 34.193 18.9182 34.033 18.9928C33.8784 19.0622 33.7024 19.0968 33.505 19.0968C33.3184 19.0968 33.145 19.0622 32.985 18.9928C32.8304 18.9182 32.6944 18.8195 32.577 18.6968C32.465 18.5742 32.377 18.4302 32.313 18.2648C32.249 18.0942 32.217 17.9155 32.217 17.7288C32.217 17.5422 32.2464 17.3688 32.305 17.2088C32.3637 17.0435 32.449 16.8995 32.561 16.7768C32.673 16.6542 32.8064 16.5582 32.961 16.4888C33.121 16.4142 33.297 16.3768 33.489 16.3768C33.681 16.3768 33.8544 16.4142 34.009 16.4888C34.169 16.5582 34.305 16.6568 34.417 16.7848C34.5344 16.9075 34.625 17.0515 34.689 17.2168C34.753 17.3822 34.785 17.5582 34.785 17.7448ZM41.0109 17.7288C41.0109 17.4248 40.9549 17.1395 40.8429 16.8728C40.7309 16.6062 40.5735 16.3742 40.3709 16.1768C40.1735 15.9742 39.9362 15.8168 39.6589 15.7048C39.3869 15.5875 39.0882 15.5288 38.7629 15.5288C38.4375 15.5288 38.1362 15.5875 37.8589 15.7048C37.5869 15.8222 37.3495 15.9822 37.1469 16.1848C36.9495 16.3822 36.7922 16.6168 36.6749 16.8888C36.5629 17.1555 36.5069 17.4408 36.5069 17.7448C36.5069 18.0488 36.5629 18.3342 36.6749 18.6008C36.7869 18.8622 36.9415 19.0942 37.1389 19.2968C37.3415 19.4942 37.5789 19.6515 37.8509 19.7688C38.1282 19.8808 38.4269 19.9368 38.7469 19.9368C39.0722 19.9368 39.3735 19.8782 39.6509 19.7608C39.9282 19.6435 40.1655 19.4862 40.3629 19.2888C40.5655 19.0862 40.7229 18.8515 40.8349 18.5848C40.9522 18.3182 41.0109 18.0328 41.0109 17.7288ZM40.0429 17.7448C40.0429 17.9315 40.0135 18.1075 39.9549 18.2728C39.8962 18.4328 39.8109 18.5742 39.6989 18.6968C39.5869 18.8195 39.4509 18.9182 39.2909 18.9928C39.1362 19.0622 38.9602 19.0968 38.7629 19.0968C38.5762 19.0968 38.4029 19.0622 38.2429 18.9928C38.0882 18.9182 37.9522 18.8195 37.8349 18.6968C37.7229 18.5742 37.6349 18.4302 37.5709 18.2648C37.5069 18.0942 37.4749 17.9155 37.4749 17.7288C37.4749 17.5422 37.5042 17.3688 37.5629 17.2088C37.6215 17.0435 37.7069 16.8995 37.8189 16.7768C37.9309 16.6542 38.0642 16.5582 38.2189 16.4888C38.3789 16.4142 38.5549 16.3768 38.7469 16.3768C38.9389 16.3768 39.1122 16.4142 39.2669 16.4888C39.4269 16.5582 39.5629 16.6568 39.6749 16.7848C39.7922 16.9075 39.8829 17.0515 39.9469 17.2168C40.0109 17.3822 40.0429 17.5582 40.0429 17.7448ZM46.1487 19.8408V14.0008H45.1807V16.2728C45.026 16.0755 44.834 15.9022 44.6047 15.7528C44.3753 15.6035 44.0873 15.5288 43.7407 15.5288C43.49 15.5288 43.2447 15.5768 43.0047 15.6728C42.77 15.7688 42.562 15.9128 42.3807 16.1048C42.1993 16.2915 42.0527 16.5208 41.9407 16.7928C41.834 17.0648 41.7807 17.3768 41.7807 17.7288C41.7807 18.0808 41.8367 18.3928 41.9487 18.6648C42.0607 18.9368 42.2073 19.1688 42.3887 19.3608C42.57 19.5475 42.778 19.6888 43.0127 19.7848C43.2473 19.8808 43.49 19.9288 43.7407 19.9288C44.082 19.9288 44.3673 19.8515 44.5967 19.6968C44.8313 19.5422 45.026 19.3555 45.1807 19.1368V19.8408H46.1487ZM45.1967 17.7288C45.1967 17.9368 45.162 18.1235 45.0927 18.2888C45.0287 18.4542 44.9407 18.5982 44.8287 18.7208C44.7167 18.8382 44.586 18.9288 44.4367 18.9928C44.2873 19.0568 44.1327 19.0888 43.9727 19.0888C43.8073 19.0888 43.65 19.0568 43.5007 18.9928C43.3567 18.9288 43.2287 18.8382 43.1167 18.7208C43.0047 18.6035 42.9167 18.4622 42.8527 18.2968C42.7887 18.1262 42.7567 17.9368 42.7567 17.7288C42.7567 17.5155 42.7887 17.3262 42.8527 17.1608C42.9167 16.9902 43.0047 16.8462 43.1167 16.7288C43.2287 16.6115 43.3567 16.5235 43.5007 16.4648C43.65 16.4008 43.8073 16.3688 43.9727 16.3688C44.1327 16.3688 44.2873 16.4008 44.4367 16.4648C44.586 16.5288 44.7167 16.6222 44.8287 16.7448C44.9407 16.8622 45.0287 17.0035 45.0927 17.1688C45.162 17.3342 45.1967 17.5208 45.1967 17.7288ZM54.1225 17.7288C54.1225 17.3768 54.0665 17.0648 53.9545 16.7928C53.8425 16.5208 53.6932 16.2915 53.5065 16.1048C53.3252 15.9128 53.1172 15.7688 52.8825 15.6728C52.6478 15.5768 52.4052 15.5288 52.1545 15.5288C51.8132 15.5288 51.5278 15.6062 51.2985 15.7608C51.0692 15.9102 50.8772 16.0968 50.7225 16.3208V14.0008H49.7545V19.8408H50.7225V19.1848C50.8718 19.3822 51.0612 19.5555 51.2905 19.7048C51.5198 19.8542 51.8078 19.9288 52.1545 19.9288C52.4052 19.9288 52.6478 19.8808 52.8825 19.7848C53.1225 19.6888 53.3332 19.5475 53.5145 19.3608C53.7012 19.1688 53.8478 18.9368 53.9545 18.6648C54.0665 18.3928 54.1225 18.0808 54.1225 17.7288ZM53.1385 17.7288C53.1385 17.9368 53.1065 18.1262 53.0425 18.2968C52.9785 18.4622 52.8905 18.6035 52.7785 18.7208C52.6718 18.8382 52.5438 18.9288 52.3945 18.9928C52.2505 19.0568 52.0958 19.0888 51.9305 19.0888C51.7652 19.0888 51.6078 19.0568 51.4585 18.9928C51.3092 18.9288 51.1785 18.8382 51.0665 18.7208C50.9545 18.5982 50.8638 18.4542 50.7945 18.2888C50.7305 18.1235 50.6985 17.9368 50.6985 17.7288C50.6985 17.5208 50.7305 17.3342 50.7945 17.1688C50.8638 17.0035 50.9545 16.8622 51.0665 16.7448C51.1785 16.6222 51.3092 16.5288 51.4585 16.4648C51.6078 16.4008 51.7652 16.3688 51.9305 16.3688C52.0958 16.3688 52.2505 16.4008 52.3945 16.4648C52.5438 16.5288 52.6718 16.6195 52.7785 16.7368C52.8905 16.8542 52.9785 16.9982 53.0425 17.1688C53.1065 17.3342 53.1385 17.5208 53.1385 17.7288ZM58.6579 19.8408V17.3368C58.6579 16.7715 58.5059 16.3342 58.2019 16.0248C57.8979 15.7102 57.4312 15.5528 56.8019 15.5528C56.4552 15.5528 56.1592 15.5848 55.9139 15.6488C55.6685 15.7128 55.4285 15.7982 55.1939 15.9048L55.4579 16.6808C55.6499 16.6008 55.8392 16.5368 56.0259 16.4888C56.2125 16.4408 56.4259 16.4168 56.6659 16.4168C57.0019 16.4168 57.2579 16.4942 57.4339 16.6488C57.6152 16.8035 57.7059 17.0275 57.7059 17.3208V17.4248C57.5405 17.3715 57.3672 17.3288 57.1859 17.2968C57.0099 17.2648 56.7939 17.2488 56.5379 17.2488C56.2925 17.2488 56.0632 17.2782 55.8499 17.3368C55.6419 17.3902 55.4605 17.4728 55.3059 17.5848C55.1565 17.6968 55.0392 17.8382 54.9539 18.0088C54.8685 18.1795 54.8259 18.3795 54.8259 18.6088V18.6248C54.8259 18.8382 54.8659 19.0275 54.9459 19.1928C55.0312 19.3528 55.1405 19.4888 55.2739 19.6008C55.4125 19.7075 55.5725 19.7875 55.7539 19.8408C55.9352 19.8995 56.1272 19.9288 56.3299 19.9288C56.6499 19.9288 56.9219 19.8702 57.1459 19.7528C57.3699 19.6355 57.5539 19.4915 57.6979 19.3208V19.8408H58.6579ZM57.7219 18.3128C57.7219 18.4462 57.6925 18.5688 57.6339 18.6808C57.5805 18.7875 57.5032 18.8808 57.4019 18.9608C57.3005 19.0355 57.1805 19.0942 57.0419 19.1368C56.9085 19.1795 56.7619 19.2008 56.6019 19.2008C56.3725 19.2008 56.1779 19.1475 56.0179 19.0408C55.8632 18.9342 55.7859 18.7795 55.7859 18.5768V18.5608C55.7859 18.3422 55.8712 18.1742 56.0419 18.0568C56.2125 17.9395 56.4499 17.8808 56.7539 17.8808C56.9405 17.8808 57.1165 17.8968 57.2819 17.9288C57.4525 17.9608 57.5992 18.0008 57.7219 18.0488V18.3128ZM60.9381 16.4488H62.0741V15.6168H60.9381V14.4568H59.9701V15.6168H59.4341V16.4488H59.9701V18.6728C59.9701 18.9075 59.9994 19.1048 60.0581 19.2648C60.1168 19.4195 60.1994 19.5448 60.3061 19.6408C60.4181 19.7368 60.5488 19.8062 60.6981 19.8488C60.8474 19.8915 61.0101 19.9128 61.1861 19.9128C61.3674 19.9128 61.5274 19.8942 61.6661 19.8568C61.8048 19.8195 61.9354 19.7662 62.0581 19.6968V18.9048C61.8661 19.0008 61.6661 19.0488 61.4581 19.0488C61.2928 19.0488 61.1648 19.0088 61.0741 18.9288C60.9834 18.8435 60.9381 18.7075 60.9381 18.5208V16.4488ZM64.2194 16.4488H65.3554V15.6168H64.2194V14.4568H63.2514V15.6168H62.7154V16.4488H63.2514V18.6728C63.2514 18.9075 63.2807 19.1048 63.3394 19.2648C63.398 19.4195 63.4807 19.5448 63.5874 19.6408C63.6994 19.7368 63.83 19.8062 63.9794 19.8488C64.1287 19.8915 64.2914 19.9128 64.4674 19.9128C64.6487 19.9128 64.8087 19.8942 64.9474 19.8568C65.086 19.8195 65.2167 19.7662 65.3394 19.6968V18.9048C65.1474 19.0008 64.9474 19.0488 64.7394 19.0488C64.574 19.0488 64.446 19.0088 64.3554 18.9288C64.2647 18.8435 64.2194 18.7075 64.2194 18.5208V16.4488ZM66.9514 18.0728H70.0554C70.0608 18.0248 70.0634 17.9795 70.0634 17.9368C70.0688 17.8942 70.0714 17.8515 70.0714 17.8088C70.0714 17.5048 70.0288 17.2142 69.9434 16.9368C69.8581 16.6595 69.7301 16.4168 69.5594 16.2088C69.3941 16.0008 69.1834 15.8355 68.9274 15.7128C68.6768 15.5902 68.3834 15.5288 68.0474 15.5288C67.7434 15.5288 67.4661 15.5875 67.2154 15.7048C66.9648 15.8222 66.7461 15.9822 66.5594 16.1848C66.3781 16.3822 66.2368 16.6142 66.1354 16.8808C66.0341 17.1475 65.9834 17.4328 65.9834 17.7368C65.9834 18.0675 66.0394 18.3688 66.1514 18.6408C66.2634 18.9075 66.4154 19.1368 66.6074 19.3288C66.8048 19.5208 67.0341 19.6702 67.2954 19.7768C67.5621 19.8835 67.8474 19.9368 68.1514 19.9368C68.5408 19.9368 68.8741 19.8648 69.1514 19.7208C69.4341 19.5768 69.6768 19.3848 69.8794 19.1448L69.3114 18.6408C69.1408 18.8062 68.9674 18.9315 68.7914 19.0168C68.6154 19.1022 68.4074 19.1448 68.1674 19.1448C67.8528 19.1448 67.5861 19.0542 67.3674 18.8728C67.1488 18.6862 67.0101 18.4195 66.9514 18.0728ZM66.9434 17.4328C66.9861 17.1022 67.1034 16.8355 67.2954 16.6328C67.4928 16.4248 67.7408 16.3208 68.0394 16.3208C68.1994 16.3208 68.3408 16.3502 68.4634 16.4088C68.5914 16.4675 68.7008 16.5475 68.7914 16.6488C68.8821 16.7448 68.9541 16.8622 69.0074 17.0008C69.0608 17.1342 69.0954 17.2782 69.1114 17.4328H66.9434ZM72.0115 18.2328C72.0115 17.9555 72.0462 17.7128 72.1155 17.5048C72.1849 17.2915 72.2835 17.1155 72.4115 16.9768C72.5395 16.8382 72.6915 16.7342 72.8675 16.6648C73.0435 16.5955 73.2382 16.5608 73.4515 16.5608H73.5075V15.5368C73.1342 15.5208 72.8249 15.6088 72.5795 15.8008C72.3342 15.9928 72.1449 16.2488 72.0115 16.5688V15.6168H71.0435V19.8408H72.0115V18.2328ZM78.2842 15.6168H77.2762L76.1802 18.7528L74.9802 15.6168H73.9482L75.7082 19.8408C75.6282 20.0275 75.5429 20.1555 75.4522 20.2248C75.3616 20.2942 75.2469 20.3288 75.1082 20.3288C75.0069 20.3288 74.9082 20.3128 74.8122 20.2808C74.7216 20.2542 74.6309 20.2168 74.5402 20.1688L74.2122 20.8888C74.3616 20.9688 74.5136 21.0302 74.6682 21.0728C74.8282 21.1208 75.0096 21.1448 75.2122 21.1448C75.3829 21.1448 75.5349 21.1235 75.6682 21.0808C75.8016 21.0382 75.9242 20.9688 76.0362 20.8728C76.1482 20.7822 76.2496 20.6622 76.3402 20.5128C76.4309 20.3635 76.5189 20.1795 76.6042 19.9608L78.2842 15.6168Z" fill="#2A8908"/>
<defs>
<clipPath id="clip0_345_443">
<rect width="13" height="13" fill="white" transform="translate(9.59961 11.3408)"/>
</clipPath>
</defs>
</svg>
