<svg width="851" height="606" viewBox="0 0 851 606" fill="none" xmlns="http://www.w3.org/2000/svg">
<g clip-path="url(#clip0_285_999)">
<path d="M845.645 562.71C845.552 562.958 845.365 563.16 845.124 563.27C844.883 563.38 844.608 563.39 844.359 563.299L49.5984 267.563C49.3504 267.47 49.1494 267.283 49.0394 267.042C48.9295 266.801 48.9196 266.526 49.012 266.278C49.1044 266.03 49.2914 265.829 49.5321 265.718C49.7728 265.608 50.0475 265.597 50.2959 265.689L845.057 561.424C845.305 561.517 845.506 561.705 845.616 561.946C845.726 562.187 845.737 562.462 845.645 562.71Z" fill="#C1E1E4"/>
<path d="M422.282 0.494141H232.903C218.047 0.51095 203.804 6.41984 193.3 16.9245C182.795 27.4291 176.886 41.6716 176.869 56.5274V73.6451C176.481 73.5382 176.072 73.523 175.677 73.6009C175.281 73.6787 174.909 73.8475 174.59 74.0938C174.271 74.3401 174.013 74.6572 173.838 75.0201C173.662 75.383 173.573 75.7817 173.578 76.1848V89.3484C173.573 89.7515 173.662 90.1503 173.838 90.5132C174.013 90.8761 174.271 91.1932 174.59 91.4395C174.909 91.6858 175.281 91.8545 175.677 91.9324C176.072 92.0102 176.481 91.995 176.869 91.8881V111.82C176.481 111.713 176.072 111.697 175.677 111.775C175.281 111.853 174.909 112.022 174.59 112.268C174.271 112.514 174.013 112.832 173.838 113.194C173.662 113.557 173.573 113.956 173.578 114.359V147.268C173.573 147.671 173.662 148.07 173.838 148.433C174.013 148.796 174.271 149.113 174.59 149.359C174.909 149.606 175.281 149.774 175.677 149.852C176.072 149.93 176.481 149.915 176.869 149.808V161.841C176.481 161.734 176.072 161.719 175.677 161.797C175.281 161.875 174.909 162.043 174.59 162.29C174.271 162.536 174.013 162.853 173.838 163.216C173.662 163.579 173.573 163.978 173.578 164.381V197.29C173.573 197.693 173.662 198.092 173.838 198.455C174.013 198.818 174.271 199.135 174.59 199.381C174.909 199.627 175.281 199.796 175.677 199.874C176.072 199.952 176.481 199.936 176.869 199.829V547.353C176.886 562.209 182.795 576.451 193.3 586.956C203.804 597.461 218.047 603.37 232.903 603.386H422.282C437.138 603.37 451.38 597.461 461.885 586.956C472.39 576.451 478.299 562.209 478.315 547.353V56.5274C478.299 41.6716 472.39 27.4291 461.885 16.9245C451.38 6.41984 437.138 0.51095 422.282 0.494141ZM466.468 547.353C466.455 559.068 461.795 570.299 453.512 578.583C445.228 586.866 433.997 591.526 422.282 591.539H232.903C221.188 591.526 209.957 586.866 201.673 578.583C193.389 570.299 188.73 559.068 188.717 547.353V56.5274C188.73 44.8126 193.389 33.5815 201.673 25.2979C209.957 17.0142 221.188 12.3547 232.903 12.3414H422.282C433.997 12.3546 445.228 17.0142 453.512 25.2978C461.795 33.5815 466.455 44.8126 466.468 56.5274V547.353Z" fill="#3F3D56"/>
<path d="M422.282 598.121H232.903C219.443 598.106 206.539 592.752 197.021 583.235C187.504 573.717 182.15 560.813 182.135 547.353V56.5276C182.15 43.0678 187.504 30.1637 197.021 20.6462C206.539 11.1287 219.443 5.77504 232.903 5.75977H422.282C435.742 5.77503 448.646 11.1287 458.164 20.6462C467.681 30.1637 473.035 43.0678 473.05 56.5276V547.353C473.035 560.813 467.681 573.717 458.164 583.235C448.646 592.752 435.742 598.106 422.282 598.121Z" fill="#46879F"/>
<path d="M426.962 590.222H228.223C219.145 590.212 210.442 586.601 204.023 580.182C197.604 573.763 193.993 565.06 193.982 555.982V47.898C193.993 38.82 197.604 30.1167 204.023 23.6975C210.442 17.2784 219.145 13.6676 228.223 13.6573H254.141C255.641 13.659 257.08 14.2558 258.141 15.3168C259.202 16.3778 259.799 17.8163 259.8 19.3167C259.805 23.7492 261.568 27.9988 264.703 31.1331C267.837 34.2674 272.086 36.0304 276.519 36.0354H376.034C380.466 36.0304 384.716 34.2674 387.85 31.1331C390.985 27.9988 392.748 23.7492 392.753 19.3167C392.754 17.8162 393.351 16.3777 394.412 15.3168C395.473 14.2558 396.911 13.6589 398.412 13.6572H426.962C436.04 13.6675 444.744 17.2783 451.163 23.6975C457.582 30.1166 461.193 38.8199 461.203 47.898V555.982C461.193 565.06 457.582 573.763 451.163 580.182C444.744 586.601 436.041 590.212 426.962 590.222Z" fill="white"/>
<path d="M336.149 25.1756H312.455C311.757 25.1756 311.087 24.8982 310.593 24.4045C310.1 23.9108 309.822 23.2411 309.822 22.5429C309.822 21.8446 310.1 21.175 310.593 20.6813C311.087 20.1875 311.757 19.9102 312.455 19.9102H336.149C336.848 19.9102 337.517 20.1875 338.011 20.6813C338.505 21.175 338.782 21.8446 338.782 22.5429C338.782 23.2411 338.505 23.9108 338.011 24.4045C337.517 24.8982 336.848 25.1756 336.149 25.1756Z" fill="white"/>
<path d="M352.603 24.5175C353.33 24.5175 353.92 23.9281 353.92 23.2011C353.92 22.4741 353.33 21.8848 352.603 21.8848C351.876 21.8848 351.287 22.4741 351.287 23.2011C351.287 23.9281 351.876 24.5175 352.603 24.5175Z" fill="white"/>
<path d="M461.262 116.494H194.262V119.494H461.262V116.494Z" fill="#C2E2E5"/>
<path d="M461.263 176.494H193.877V179.494H461.263V176.494Z" fill="#E8F4F5"/>
<path d="M461.187 300.494H193.992V303.494H461.187V300.494Z" fill="#C2E2E5"/>
<path d="M461.258 424.994H194.328V427.994H461.258V424.994Z" fill="white"/>
<path d="M461.158 521.994H194.328V524.994H461.158V521.994Z" fill="#C2E1E5"/>
<path d="M390.869 117.994H387.869V301.994H390.869V117.994Z" fill="#E6E6E6"/>
<path d="M250.555 301.94H247.555V522.994H250.555V301.94Z" fill="#C2E1E5"/>
<path d="M461.203 362.576H249.055V365.576H461.203V362.576Z" fill="#C2E2E5"/>
<path d="M391.191 522.994H388.191V590.223H391.191V522.994Z" fill="#C2E1E5"/>
<path d="M388.871 239.723H194.035V242.723H388.871V239.723Z" fill="#C2E1E5"/>
<path d="M234.897 13.3315L232.17 14.4727L275.735 118.573L278.462 117.432L234.897 13.3315Z" fill="#C9E5E9"/>
<path d="M370.461 36.0352H367.461V117.994H370.461V36.0352Z" fill="#C2E2E5"/>
<path d="M447.818 163.494C447.818 190.374 406.259 253.01 394.114 270.741C393.747 271.277 393.256 271.715 392.681 272.018C392.107 272.321 391.468 272.48 390.818 272.48C390.169 272.48 389.53 272.321 388.955 272.018C388.381 271.715 387.889 271.277 387.523 270.741C375.378 253.01 333.818 190.374 333.818 163.494C333.818 148.377 339.824 133.879 350.513 123.189C361.203 112.499 375.701 106.494 390.818 106.494C405.936 106.494 420.434 112.499 431.123 123.189C441.813 133.879 447.818 148.377 447.818 163.494Z" fill="#D92863"/>
<path d="M390.818 188.494C406.835 188.494 419.818 175.51 419.818 159.494C419.818 143.478 406.835 130.494 390.818 130.494C374.802 130.494 361.818 143.478 361.818 159.494C361.818 175.51 374.802 188.494 390.818 188.494Z" fill="white"/>
<path d="M388.918 302.857L279.092 522.289L281.774 523.632L391.6 304.199L388.918 302.857Z" fill="#E6E6E6"/>
<path d="M388.918 302.857L279.092 522.289L281.774 523.632L391.6 304.199L388.918 302.857Z" fill="url(#paint0_linear_285_999)" fill-opacity="0.2"/>
<path d="M547.088 351.124C548.383 351.82 549.814 352.224 551.282 352.307C552.75 352.39 554.218 352.15 555.583 351.604C556.948 351.058 558.177 350.22 559.183 349.148C560.188 348.076 560.947 346.796 561.405 345.399L597.134 344.781L586.645 329.458L554.324 332.394C551.926 331.78 549.386 332.067 547.186 333.201C544.986 334.335 543.278 336.236 542.386 338.545C541.494 340.854 541.48 343.41 542.347 345.728C543.213 348.047 544.9 349.967 547.088 351.124H547.088Z" fill="#FFB8B8"/>
<path d="M568.537 350.678C567.983 350.678 567.435 350.566 566.926 350.348C566.417 350.131 565.957 349.812 565.574 349.412C565.191 349.012 564.893 348.539 564.698 348.02C564.503 347.502 564.415 346.95 564.439 346.396L565.161 330.013C565.2 329.037 565.588 328.108 566.254 327.394C566.92 326.679 567.82 326.228 568.79 326.12L610.181 321.373L608.794 348.675L568.74 350.672C568.672 350.676 568.604 350.678 568.537 350.678Z" fill="#3B6E81"/>
<path d="M618.945 575.249L607.291 579.055L587.064 535.915L604.264 530.298L618.945 575.249Z" fill="#FFB8B8"/>
<path d="M625.608 585.574L588.031 597.847L587.876 597.372C587.248 595.451 587.005 593.426 587.161 591.411C587.316 589.397 587.867 587.432 588.781 585.63C589.696 583.829 590.956 582.225 592.491 580.91C594.025 579.596 595.804 578.596 597.724 577.969L597.725 577.968L620.676 570.473L625.608 585.574Z" fill="#2F2E41"/>
<path d="M653.272 593.29L641.012 593.289L635.18 546.001L653.274 546.002L653.272 593.29Z" fill="#FFB8B8"/>
<path d="M656.398 605.174L616.867 605.172V604.672C616.867 602.652 617.265 600.651 618.038 598.784C618.812 596.917 619.945 595.221 621.374 593.793C622.803 592.364 624.499 591.23 626.366 590.457C628.232 589.684 630.233 589.286 632.254 589.286H632.255L656.398 589.287L656.398 605.174Z" fill="#2F2E41"/>
<path d="M634.651 581.78C633.649 581.779 632.681 581.411 631.932 580.745C631.182 580.08 630.702 579.163 630.583 578.168L614.776 446.023L591.638 483.165L618.786 552.542C619.155 553.501 619.154 554.563 618.781 555.521C618.408 556.479 617.691 557.263 616.771 557.72L593.741 568.989C593.215 569.246 592.64 569.388 592.056 569.405C591.471 569.422 590.889 569.313 590.349 569.086C589.81 568.859 589.325 568.519 588.928 568.09C588.531 567.66 588.23 567.15 588.046 566.595L562.524 489.486C560.602 483.683 560.351 477.457 561.8 471.518L578.302 403.796L578.495 403.69L615.694 383.314L615.907 383.393L659.715 399.382L655.13 486.199L658.461 576.308C658.507 577.378 658.129 578.424 657.41 579.218C656.691 580.012 655.688 580.491 654.618 580.552L634.907 581.773C634.821 581.777 634.736 581.78 634.651 581.78Z" fill="#2F2E41"/>
<path d="M610.521 429.53C603.976 429.53 598.462 427.666 595.011 422.926L594.9 422.774L597.133 399.348L577.278 410.37C576.866 410.598 576.394 410.695 575.926 410.646C575.457 410.598 575.015 410.407 574.659 410.1C574.302 409.792 574.049 409.382 573.932 408.926C573.816 408.47 573.843 407.989 574.009 407.548L598.77 341.789L615.12 288.222C615.931 283.935 618.025 279.995 621.125 276.924C624.224 273.853 628.184 271.796 632.478 271.026C647.043 268.351 655.718 273.265 665.735 284.171C668.158 286.824 669.942 289.996 670.951 293.445C671.961 296.893 672.17 300.526 671.561 304.067L662.085 358.228L664.869 406.788C665.082 407.626 665.025 408.509 664.706 409.311C664.386 410.114 663.822 410.795 663.092 411.257C655.347 416.187 631.599 429.528 610.521 429.53Z" fill="#3B6E81"/>
<path d="M643.657 262.915C657.221 262.915 668.218 251.919 668.218 238.354C668.218 224.789 657.221 213.793 643.657 213.793C630.092 213.793 619.096 224.789 619.096 238.354C619.096 251.919 630.092 262.915 643.657 262.915Z" fill="#FFB8B8"/>
<path d="M650.053 413.432C651.389 412.819 652.575 411.921 653.527 410.8C654.478 409.68 655.173 408.364 655.561 406.946C655.949 405.529 656.022 404.043 655.774 402.594C655.526 401.145 654.963 399.768 654.125 398.56L675.189 369.693L656.64 368.813L639.481 396.361C637.545 397.903 636.242 400.101 635.819 402.54C635.396 404.978 635.882 407.488 637.185 409.592C638.488 411.696 640.518 413.249 642.889 413.957C645.261 414.665 647.81 414.478 650.053 413.432Z" fill="#FFB8B8"/>
<path d="M661.461 397.142C660.433 397.289 659.388 397.04 658.536 396.446L644.591 386.722C643.752 386.142 643.161 385.269 642.934 384.275C642.706 383.281 642.859 382.238 643.362 381.351L668.188 337.18L643.219 307.124C641.907 305.546 640.939 303.712 640.375 301.739C639.812 299.766 639.665 297.697 639.944 295.664C640.224 293.632 640.923 291.679 641.999 289.931C643.074 288.184 644.501 286.679 646.19 285.513C647.878 284.347 649.791 283.545 651.806 283.159C653.821 282.773 655.895 282.81 657.895 283.269C659.895 283.727 661.777 284.598 663.423 285.824C665.068 287.05 666.44 288.605 667.452 290.39L695.022 339.051C695.217 339.398 695.32 339.789 695.319 340.186C695.319 340.584 695.216 340.975 695.021 341.321L664.445 395.109C664.163 395.605 663.781 396.036 663.323 396.376C662.864 396.715 662.341 396.956 661.785 397.082C661.677 397.107 661.569 397.127 661.461 397.142Z" fill="#3B6E81"/>
<path d="M633.841 235.219C631.41 233.404 628.045 233.687 625.164 232.736C623.45 232.17 621.914 231.163 620.711 229.816C619.508 228.469 618.68 226.829 618.311 225.061C617.942 223.293 618.044 221.459 618.607 219.743C619.171 218.028 620.175 216.49 621.52 215.285C624.631 212.497 629.057 211.864 633.202 211.354C638.882 210.656 644.617 209.956 650.312 210.512C656.007 211.067 661.74 212.991 665.903 216.917C670.493 221.246 672.754 227.691 672.769 234C672.609 240.339 670.869 246.537 667.707 252.033C666.729 254.122 665.256 255.939 663.414 257.328C661.499 258.592 658.799 258.923 656.954 257.557C655.359 256.377 654.775 254.309 654.055 252.461C653.334 250.612 652.105 248.643 650.142 248.358C647.613 247.991 645.684 250.562 643.271 251.403C639.897 252.58 636.149 249.977 634.772 246.679C633.396 243.381 633.758 239.65 634.145 236.097" fill="#2F2E41"/>
<path d="M850.328 604.494C850.327 604.759 850.222 605.013 850.034 605.2C849.847 605.388 849.593 605.493 849.328 605.494H1.32812C1.06291 605.494 0.808554 605.389 0.621017 605.201C0.433481 605.014 0.328125 604.759 0.328125 604.494C0.328125 604.229 0.433481 603.975 0.621017 603.787C0.808554 603.6 1.06291 603.494 1.32812 603.494H849.328C849.593 603.495 849.847 603.6 850.034 603.788C850.222 603.975 850.327 604.229 850.328 604.494Z" fill="#C2E1E5"/>
<path d="M390.818 314.494C397.998 314.494 403.818 308.674 403.818 301.494C403.818 294.314 397.998 288.494 390.818 288.494C383.639 288.494 377.818 294.314 377.818 301.494C377.818 308.674 383.639 314.494 390.818 314.494Z" fill="#D92863"/>
<path d="M573.837 159.355C568.408 166.591 544.569 175.057 537.719 177.377C537.512 177.447 537.291 177.466 537.075 177.432C536.859 177.397 536.655 177.311 536.48 177.179C536.306 177.048 536.166 176.877 536.072 176.679C535.979 176.481 535.935 176.264 535.945 176.046C536.257 168.82 537.721 143.565 543.15 136.329C546.203 132.26 550.748 129.57 555.785 128.851C560.821 128.133 565.937 129.445 570.007 132.498C574.076 135.552 576.766 140.097 577.484 145.133C578.202 150.17 576.891 155.285 573.837 159.355Z" fill="#D92863" fill-opacity="0.2"/>
<path d="M559.303 156.525C564.693 156.525 569.062 152.156 569.062 146.765C569.062 141.375 564.693 137.006 559.303 137.006C553.913 137.006 549.543 141.375 549.543 146.765C549.543 152.156 553.913 156.525 559.303 156.525Z" fill="white"/>
<path d="M530.621 189.365C533.037 189.365 534.996 187.406 534.996 184.99C534.996 182.574 533.037 180.615 530.621 180.615C528.205 180.615 526.246 182.574 526.246 184.99C526.246 187.406 528.205 189.365 530.621 189.365Z" fill="#D92863" fill-opacity="0.2"/>
<path d="M98.006 357.835C105.995 370.041 105.74 410.835 105.495 422.496C105.488 422.848 105.395 423.194 105.224 423.502C105.053 423.81 104.81 424.072 104.515 424.265C104.22 424.458 103.883 424.576 103.532 424.609C103.181 424.643 102.828 424.59 102.502 424.455C91.7171 420.014 54.2292 403.923 46.24 391.717C44.0121 388.318 42.4759 384.514 41.719 380.521C40.9621 376.528 40.9994 372.425 41.8288 368.447C42.6581 364.468 44.2633 360.692 46.5526 357.334C48.8419 353.976 51.7705 351.102 55.1709 348.877C58.5713 346.651 62.3769 345.117 66.3703 344.363C70.3637 343.608 74.4667 343.648 78.4446 344.48C82.4226 345.312 86.1976 346.92 89.5541 349.211C92.9105 351.503 95.7825 354.433 98.006 357.835Z" fill="#DA2D67" fill-opacity="0.2"/>
<path d="M70.9339 388.698C79.626 388.698 86.6724 381.651 86.6724 372.959C86.6724 364.267 79.626 357.221 70.9339 357.221C62.2417 357.221 55.1953 364.267 55.1953 372.959C55.1953 381.651 62.2417 388.698 70.9339 388.698Z" fill="white"/>
<path d="M113.137 444.495C117.034 444.495 120.192 441.336 120.192 437.44C120.192 433.543 117.034 430.385 113.137 430.385C109.241 430.385 106.082 433.543 106.082 437.44C106.082 441.336 109.241 444.495 113.137 444.495Z" fill="#F8D5E1"/>
</g>
<defs>
<linearGradient id="paint0_linear_285_999" x1="280.851" y1="522.115" x2="390.319" y2="303.399" gradientUnits="userSpaceOnUse">
<stop stop-color="#36D7E2"/>
<stop offset="1" stop-color="#23C1D9"/>
</linearGradient>
<clipPath id="clip0_285_999">
<rect width="850" height="605" fill="white" transform="translate(0.328125 0.494141)"/>
</clipPath>
</defs>
</svg>
