<svg width="79" height="31" viewBox="0 0 79 31" fill="none" xmlns="http://www.w3.org/2000/svg">
<path d="M29.5959 12.6369C28.8148 11.8558 28.8148 10.5895 29.5959 9.80844L37.5712 1.8331C38.3522 1.05205 39.6186 1.05205 40.3996 1.8331L48.518 9.95145C49.299 10.7325 49.299 11.9988 48.518 12.7799L40.5426 20.7552C39.7616 21.5363 38.4953 21.5363 37.7142 20.7552L29.5959 12.6369Z" fill="#EBEBEB"/>
<rect x="0.181641" y="6.41895" width="78" height="24" rx="5" fill="#EBEBEB"/>
<g clip-path="url(#clip0_345_433)">
<path d="M19.3652 16.3184V18.9184" stroke="#FFB423" stroke-width="0.75" stroke-linecap="round" stroke-linejoin="round"/>
<path d="M18.0645 19.6418V15.5973C18.0645 15.2782 17.8114 15.0195 17.4992 15.0195H12.1297C11.8175 15.0195 11.5645 15.2782 11.5645 15.5973V19.6418C11.5645 19.9609 11.8175 20.2195 12.1297 20.2195H17.4992C17.8114 20.2195 18.0645 19.9609 18.0645 19.6418Z" stroke="#FFB423" stroke-width="0.75" stroke-linecap="round" stroke-linejoin="round"/>
<path d="M12.8652 18.9184V16.3184" stroke="#FFB423" stroke-width="0.75" stroke-linecap="round" stroke-linejoin="round"/>
</g>
<path d="M24.9016 19.9189H28.8296V19.0229H25.8856V14.3189H24.9016V19.9189ZM33.9366 17.8069C33.9366 17.5029 33.8806 17.2176 33.7686 16.9509C33.6566 16.6843 33.4993 16.4523 33.2966 16.2549C33.0993 16.0523 32.862 15.8949 32.5846 15.7829C32.3126 15.6656 32.014 15.6069 31.6886 15.6069C31.3633 15.6069 31.062 15.6656 30.7846 15.7829C30.5126 15.9003 30.2753 16.0603 30.0726 16.2629C29.8753 16.4603 29.718 16.6949 29.6006 16.9669C29.4886 17.2336 29.4326 17.5189 29.4326 17.8229C29.4326 18.1269 29.4886 18.4123 29.6006 18.6789C29.7126 18.9403 29.8673 19.1723 30.0646 19.3749C30.2673 19.5723 30.5046 19.7296 30.7766 19.8469C31.054 19.9589 31.3526 20.0149 31.6726 20.0149C31.998 20.0149 32.2993 19.9563 32.5766 19.8389C32.854 19.7216 33.0913 19.5643 33.2886 19.3669C33.4913 19.1643 33.6486 18.9296 33.7606 18.6629C33.878 18.3963 33.9366 18.1109 33.9366 17.8069ZM32.9686 17.8229C32.9686 18.0096 32.9393 18.1856 32.8806 18.3509C32.822 18.5109 32.7366 18.6523 32.6246 18.7749C32.5126 18.8976 32.3766 18.9963 32.2166 19.0709C32.062 19.1403 31.886 19.1749 31.6886 19.1749C31.502 19.1749 31.3286 19.1403 31.1686 19.0709C31.014 18.9963 30.878 18.8976 30.7606 18.7749C30.6486 18.6523 30.5606 18.5083 30.4966 18.3429C30.4326 18.1723 30.4006 17.9936 30.4006 17.8069C30.4006 17.6203 30.43 17.4469 30.4886 17.2869C30.5473 17.1216 30.6326 16.9776 30.7446 16.8549C30.8566 16.7323 30.99 16.6363 31.1446 16.5669C31.3046 16.4923 31.4806 16.4549 31.6726 16.4549C31.8646 16.4549 32.038 16.4923 32.1926 16.5669C32.3526 16.6363 32.4886 16.7349 32.6006 16.8629C32.718 16.9856 32.8086 17.1296 32.8726 17.2949C32.9366 17.4603 32.9686 17.6363 32.9686 17.8229ZM37.9673 15.6789H37.1433L36.2073 18.5909L35.3593 15.6949H34.3673L35.7353 19.9509H36.5993L37.5513 17.0629L38.4953 19.9509H39.3593L40.7433 15.6949H39.7753L38.9113 18.5909L37.9673 15.6789ZM48.4564 16.1989C48.4564 15.9109 48.4057 15.6523 48.3044 15.4229C48.2084 15.1936 48.0671 14.9963 47.8804 14.8309C47.6991 14.6656 47.4751 14.5403 47.2084 14.4549C46.9471 14.3643 46.6537 14.3189 46.3284 14.3189H44.1204V19.9189H45.1044V18.1189H46.2164C46.5257 18.1189 46.8164 18.0789 47.0884 17.9989C47.3604 17.9136 47.5977 17.7909 47.8004 17.6309C48.0031 17.4709 48.1631 17.2709 48.2804 17.0309C48.3977 16.7909 48.4564 16.5136 48.4564 16.1989ZM47.4564 16.2229C47.4564 16.5269 47.3471 16.7723 47.1284 16.9589C46.9151 17.1403 46.6217 17.2309 46.2484 17.2309H45.1044V15.2149H46.2484C46.6164 15.2149 46.9097 15.3003 47.1284 15.4709C47.3471 15.6363 47.4564 15.8869 47.4564 16.2229ZM53.5851 17.8069C53.5851 17.5029 53.5291 17.2176 53.4171 16.9509C53.3051 16.6843 53.1477 16.4523 52.9451 16.2549C52.7477 16.0523 52.5104 15.8949 52.2331 15.7829C51.9611 15.6656 51.6624 15.6069 51.3371 15.6069C51.0117 15.6069 50.7104 15.6656 50.4331 15.7829C50.1611 15.9003 49.9237 16.0603 49.7211 16.2629C49.5237 16.4603 49.3664 16.6949 49.2491 16.9669C49.1371 17.2336 49.0811 17.5189 49.0811 17.8229C49.0811 18.1269 49.1371 18.4123 49.2491 18.6789C49.3611 18.9403 49.5157 19.1723 49.7131 19.3749C49.9157 19.5723 50.1531 19.7296 50.4251 19.8469C50.7024 19.9589 51.0011 20.0149 51.3211 20.0149C51.6464 20.0149 51.9477 19.9563 52.2251 19.8389C52.5024 19.7216 52.7397 19.5643 52.9371 19.3669C53.1397 19.1643 53.2971 18.9296 53.4091 18.6629C53.5264 18.3963 53.5851 18.1109 53.5851 17.8069ZM52.6171 17.8229C52.6171 18.0096 52.5877 18.1856 52.5291 18.3509C52.4704 18.5109 52.3851 18.6523 52.2731 18.7749C52.1611 18.8976 52.0251 18.9963 51.8651 19.0709C51.7104 19.1403 51.5344 19.1749 51.3371 19.1749C51.1504 19.1749 50.9771 19.1403 50.8171 19.0709C50.6624 18.9963 50.5264 18.8976 50.4091 18.7749C50.2971 18.6523 50.2091 18.5083 50.1451 18.3429C50.0811 18.1723 50.0491 17.9936 50.0491 17.8069C50.0491 17.6203 50.0784 17.4469 50.1371 17.2869C50.1957 17.1216 50.2811 16.9776 50.3931 16.8549C50.5051 16.7323 50.6384 16.6363 50.7931 16.5669C50.9531 16.4923 51.1291 16.4549 51.3211 16.4549C51.5131 16.4549 51.6864 16.4923 51.8411 16.5669C52.0011 16.6363 52.1371 16.7349 52.2491 16.8629C52.3664 16.9856 52.4571 17.1296 52.5211 17.2949C52.5851 17.4603 52.6171 17.6363 52.6171 17.8229ZM57.6158 15.6789H56.7918L55.8558 18.5909L55.0078 15.6949H54.0158L55.3838 19.9509H56.2478L57.1998 17.0629L58.1438 19.9509H59.0078L60.3918 15.6949H59.4238L58.5598 18.5909L57.6158 15.6789ZM61.7913 18.1509H64.8953C64.9006 18.1029 64.9033 18.0576 64.9033 18.0149C64.9086 17.9723 64.9113 17.9296 64.9113 17.8869C64.9113 17.5829 64.8686 17.2923 64.7833 17.0149C64.6979 16.7376 64.5699 16.4949 64.3993 16.2869C64.2339 16.0789 64.0233 15.9136 63.7673 15.7909C63.5166 15.6683 63.2233 15.6069 62.8873 15.6069C62.5833 15.6069 62.3059 15.6656 62.0553 15.7829C61.8046 15.9003 61.5859 16.0603 61.3993 16.2629C61.2179 16.4603 61.0766 16.6923 60.9753 16.9589C60.8739 17.2256 60.8233 17.5109 60.8233 17.8149C60.8233 18.1456 60.8793 18.4469 60.9913 18.7189C61.1033 18.9856 61.2553 19.2149 61.4473 19.4069C61.6446 19.5989 61.8739 19.7483 62.1353 19.8549C62.4019 19.9616 62.6873 20.0149 62.9913 20.0149C63.3806 20.0149 63.7139 19.9429 63.9913 19.7989C64.2739 19.6549 64.5166 19.4629 64.7193 19.2229L64.1513 18.7189C63.9806 18.8843 63.8073 19.0096 63.6313 19.0949C63.4553 19.1803 63.2473 19.2229 63.0073 19.2229C62.6926 19.2229 62.4259 19.1323 62.2073 18.9509C61.9886 18.7643 61.8499 18.4976 61.7913 18.1509ZM61.7833 17.5109C61.8259 17.1803 61.9433 16.9136 62.1353 16.7109C62.3326 16.5029 62.5806 16.3989 62.8793 16.3989C63.0393 16.3989 63.1806 16.4283 63.3033 16.4869C63.4313 16.5456 63.5406 16.6256 63.6313 16.7269C63.7219 16.8229 63.7939 16.9403 63.8473 17.0789C63.9006 17.2123 63.9353 17.3563 63.9513 17.5109H61.7833ZM66.8514 18.3109C66.8514 18.0336 66.8861 17.7909 66.9554 17.5829C67.0247 17.3696 67.1234 17.1936 67.2514 17.0549C67.3794 16.9163 67.5314 16.8123 67.7074 16.7429C67.8834 16.6736 68.0781 16.6389 68.2914 16.6389H68.3474V15.6149C67.9741 15.5989 67.6647 15.6869 67.4194 15.8789C67.1741 16.0709 66.9847 16.3269 66.8514 16.6469V15.6949H65.8834V19.9189H66.8514V18.3109Z" fill="#FFB423"/>
<defs>
<clipPath id="clip0_345_433">
<rect width="13" height="13" fill="white" transform="translate(9.18164 11.4189)"/>
</clipPath>
</defs>
</svg>
