<svg width="644" height="664" viewBox="0 0 644 664" fill="none" xmlns="http://www.w3.org/2000/svg">
<g opacity="0.2">
<path d="M116.836 39.8608C108.427 31.195 94.5275 21.6713 82.1723 28.1063L73.9355 32.9968C77.4533 31.2808 89.3796 27.5056 106.025 42.5206C115.377 50.9291 122.155 62.512 125.759 74.6098C127.561 80.53 125.416 101.98 120.525 106.956C108.599 118.968 98.2169 135.185 98.2169 135.185L107.483 129.779C107.483 129.779 131.078 103.267 132.88 100.436C137.256 93.5717 137.342 84.8201 135.969 77.0123C133.738 63.2843 126.531 49.9852 116.836 39.8608Z" fill="#0080D0"/>
<path d="M128.249 87.8203C127.477 74.6929 121.986 61.6513 114.178 51.2695C107.142 41.9173 96.2457 32.1361 83.9763 31.0207C78.7425 30.5917 73.5945 32.1361 69.9909 35.9971C65.7009 40.7161 64.3281 47.4085 64.3281 53.5003C64.3281 76.7521 98.2191 135.182 98.2191 135.182C98.2191 135.182 121.128 110.042 123.788 106.353C127.649 101.119 128.592 94.2553 128.249 87.8203ZM114.521 81.8143C114.264 88.8499 109.888 95.9713 102.166 95.1991C92.4706 94.1695 81.9172 82.5865 78.571 69.2017C75.139 55.8169 80.2869 45.7783 89.8965 46.7221C104.654 48.2665 115.036 68.7727 114.521 81.8143Z" fill="url(#paint0_linear_402_90)"/>
<path d="M85.0011 60.626C84.9153 55.478 86.4597 50.759 89.1195 46.7264C79.9389 46.2974 75.2199 56.1644 78.5661 69.206C81.9981 82.5908 92.5515 94.2596 102.161 95.2034C103.019 95.2892 103.877 95.2892 104.649 95.2034C106.022 95.0318 107.309 94.6886 108.425 94.0022C110.055 93.0584 111.256 91.7714 112.2 90.227C96.4125 89.9696 85.1727 75.5552 85.0011 60.626Z" fill="#0080D0"/>
</g>
<g opacity="0.1">
<path d="M190.49 386.451L131.246 420.63L99.8008 355.006L159.045 319.915L190.49 386.451Z" fill="url(#paint1_linear_402_90)"/>
<path d="M151.753 311.262L94.7875 345.441L64.2539 281.184L121.675 247.46L151.753 311.262Z" fill="url(#paint2_linear_402_90)"/>
<path d="M216.468 276.172L163.148 308.529L132.158 244.727L184.567 215.561L216.468 276.172Z" fill="url(#paint3_linear_402_90)"/>
<path d="M182.296 206.446L128.064 236.068L102.088 179.102L154.496 149.936L182.296 206.446Z" fill="url(#paint4_linear_402_90)"/>
<path d="M82.4865 353.649L31.4451 385.094L0 319.47L51.0414 286.657L82.4865 353.649Z" fill="url(#paint5_linear_402_90)"/>
<path d="M281.632 416.536L226.489 449.349L201.424 388.281L254.288 355.925L281.632 416.536Z" fill="url(#paint6_linear_402_90)"/>
<path d="M340.874 379.165L288.921 411.066L260.666 350.454L313.53 318.098L340.874 379.165Z" fill="url(#paint7_linear_402_90)"/>
<path d="M219.202 460.28L165.426 490.814L134.893 427.012L192.314 393.288L219.202 460.28Z" fill="url(#paint8_linear_402_90)"/>
<path d="M394.654 474.417L449.341 443.428L513.143 562.373L385.54 646.226L360.475 587.437L432.479 541.409L394.654 474.417Z" fill="url(#paint9_linear_402_90)"/>
<path d="M641.209 382.809L554.621 438.864L574.217 475.778L641.209 434.762V483.981L527.733 553.251L465.754 437.497L641.209 323.109V382.809Z" fill="url(#paint10_linear_402_90)"/>
<path d="M257.031 553.253L316.732 520.441L341.341 582.419L236.068 648.5L234.701 646.221L169.076 497.654L222.396 466.209L257.031 553.253Z" fill="url(#paint11_linear_402_90)"/>
<path d="M416.535 537.294L355.012 576.031L327.668 515.875L383.722 480.784L416.535 537.294Z" fill="url(#paint12_linear_402_90)"/>
<path d="M375.972 472.588L263.408 537.757L230.596 460.283L343.616 388.734L375.972 472.588Z" fill="url(#paint13_linear_402_90)"/>
<path d="M443.423 432.945L387.824 464.39L355.012 382.359L401.496 352.281L443.423 432.945Z" fill="url(#paint14_linear_402_90)"/>
<path d="M530.921 374.597L459.827 421.536L416.533 343.151L488.082 297.123L530.921 374.597Z" fill="url(#paint15_linear_402_90)"/>
<path d="M607.95 325.392L536.857 371.877L493.562 293.947L565.112 247.919L607.95 325.392Z" fill="url(#paint16_linear_402_90)"/>
<path d="M643.037 304.882L613.87 323.111L570.576 244.726L643.037 200.521V304.882Z" fill="url(#paint17_linear_402_90)"/>
<path d="M596.546 218.742L411.521 333.585L395.115 268.872L561 152.206L596.546 218.742Z" fill="url(#paint18_linear_402_90)"/>
<path d="M149.027 496.739L98.4417 528.64L36.4629 393.289L87.9599 360.933L149.027 496.739Z" fill="url(#paint19_linear_402_90)"/>
<path d="M371.415 206.899V244.269L395.113 344.529L351.363 368.682L291.207 237.889L327.665 216.925L371.415 206.899Z" fill="url(#paint20_linear_402_90)"/>
<path d="M227.871 325.389L236.986 318.097L220.58 284.374L281.647 247.46L312.637 311.717L198.249 381.899L168.627 315.819L210.554 290.298L227.871 325.389Z" fill="url(#paint21_linear_402_90)"/>
<path d="M395.116 268.872L387.824 232.414V201.424L561 152.206L395.116 268.872Z" fill="url(#paint22_linear_402_90)"/>
<path d="M120.304 242.897L54.6795 278.444L32.8047 226.491L92.5047 185.476L120.304 242.897Z" fill="url(#paint23_linear_402_90)"/>
<path d="M253.379 250.191L226.946 267.053L194.59 210.087L223.756 191.402L253.379 250.191Z" fill="url(#paint24_linear_402_90)"/>
<path d="M276.627 236.074L256.575 248.834L226.953 190.046L253.385 173.184L276.627 236.074Z" fill="url(#paint25_linear_402_90)"/>
<path d="M370.501 170.441V197.329L321.738 210.545L285.736 229.23L262.949 167.707L343.157 117.577L370.501 170.441Z" fill="url(#paint26_linear_402_90)"/>
<path d="M447.524 175L381.899 192.773V171.81L354.1 111.198L405.141 77.4746L447.524 175Z" fill="url(#paint27_linear_402_90)"/>
<path d="M514.97 154.944L452.535 173.629L411.52 75.1919L463.017 43.291L514.97 154.944Z" fill="url(#paint28_linear_402_90)"/>
<path d="M576.038 135.353L556.898 144.923L520.44 154.494L468.031 41.4734L521.807 8.66113L576.038 135.353Z" fill="url(#paint29_linear_402_90)"/>
<path d="M643.035 152.207V187.753L604.754 210.54L572.854 149.472C572.854 149.472 617.059 132.61 625.718 125.774L643.035 152.207Z" fill="url(#paint30_linear_402_90)"/>
<path d="M621.155 116.209C613.407 122.589 587.431 135.35 587.431 135.35L560.543 62.4335L588.342 44.6602L621.155 116.209Z" fill="url(#paint31_linear_402_90)"/>
<path d="M640.743 77.0096V103.897L626.16 112.1L593.348 41.4628L615.678 27.791L640.743 77.0096Z" fill="url(#paint32_linear_402_90)"/>
<path d="M216.471 132.613C236.523 140.816 247.005 165.881 247.005 165.881L195.963 197.326L164.062 140.816L196.419 121.22C195.963 121.22 196.419 124.866 216.471 132.613Z" fill="url(#paint33_linear_402_90)"/>
<path d="M313.088 51.0391L339.064 108.461L256.578 159.502C256.578 159.502 242.906 128.968 229.234 127.145C216.018 125.323 204.625 114.841 204.625 114.841C204.625 114.841 213.74 115.752 238.349 94.7888C263.869 73.8254 313.088 51.0391 313.088 51.0391Z" fill="url(#paint34_linear_402_90)"/>
<path d="M385.543 29.6201L400.582 68.8126L349.54 102.081L324.02 49.2164C324.02 49.2164 334.957 46.0264 351.819 42.3805C368.681 38.279 385.543 29.6201 385.543 29.6201Z" fill="url(#paint35_linear_402_90)"/>
<path d="M234.249 0L269.34 52.8643L136.723 137.629L119.861 97.5256L128.064 43.294L234.249 0Z" fill="url(#paint36_linear_402_90)"/>
<path d="M174.546 381.445L136.721 402.864L116.213 360.026L153.583 337.695L174.546 381.445Z" fill="url(#paint37_linear_402_90)"/>
<path d="M135.35 306.249L100.259 327.668L80.207 286.197L116.209 265.233L135.35 306.249Z" fill="url(#paint38_linear_402_90)"/>
<path d="M199.6 271.611L168.611 290.751L148.559 249.736L179.092 232.874L199.6 271.611Z" fill="url(#paint39_linear_402_90)"/>
<path d="M165.884 201.44L133.983 218.758L118.488 184.123L149.022 167.261L165.884 201.44Z" fill="url(#paint40_linear_402_90)"/>
<path d="M66.5303 348.621L36.9081 366.85L16.4004 324.012L45.5669 304.871L66.5303 348.621Z" fill="url(#paint41_linear_402_90)"/>
<path d="M265.684 411.529L232.872 431.126L217.377 393.3L248.822 373.704L265.684 411.529Z" fill="url(#paint42_linear_402_90)"/>
<path d="M324.933 374.161L294.4 392.846L277.082 355.477L308.072 336.336L324.933 374.161Z" fill="url(#paint43_linear_402_90)"/>
<path d="M203.703 454.811L170.891 473.496L151.295 432.024L185.93 411.517L203.703 454.811Z" fill="url(#paint44_linear_402_90)"/>
<path d="M411.525 479.426L444.337 460.741L496.746 558.267L391.473 627.537L375.979 592.446L449.351 545.506L411.525 479.426Z" fill="url(#paint45_linear_402_90)"/>
<path d="M628.908 375.97L538.218 434.759L569.208 493.547L628.908 457.089V477.141L532.294 535.474L482.164 441.595L628.908 346.348V375.97Z" fill="url(#paint46_linear_402_90)"/>
<path d="M250.646 571.036L310.346 538.224L325.841 577.417L241.532 630.281L185.021 502.677L216.467 484.448L250.646 571.036Z" fill="#5ECDE7"/>
<path d="M399.67 533.189L360.477 557.798L343.615 520.884L379.162 498.554L399.67 533.189Z" fill="url(#paint47_linear_402_90)"/>
<path d="M360.485 467.129L269.34 519.537L246.098 465.306L337.243 407.429L360.485 467.129Z" fill="url(#paint48_linear_402_90)"/>
<path d="M427.026 427.929L394.213 446.614L370.516 387.369L396.948 370.052L427.026 427.929Z" fill="url(#paint49_linear_402_90)"/>
<path d="M514.068 370.501L464.394 403.313L432.949 347.259L483.535 314.902L514.068 370.501Z" fill="url(#paint50_linear_402_90)"/>
<path d="M591.082 321.288L541.408 354.1L509.963 298.046L560.549 265.689L591.082 321.288Z" fill="url(#paint51_linear_402_90)"/>
<path d="M630.73 298.059L618.426 305.351L586.98 249.296L630.73 222.864V298.059Z" fill="#5ECDE7"/>
<path d="M133.078 491.726L103.911 510.41L52.4141 398.302L82.492 379.161L133.078 491.726Z" fill="#5ECDE7"/>
<path d="M380.986 338.147L357.288 350.907L316.729 263.863H363.213L380.986 338.147Z" fill="url(#paint52_linear_402_90)"/>
<path d="M103.907 237.894L61.0689 260.68L48.3086 231.058L87.5011 204.17L103.907 237.894Z" fill="url(#paint53_linear_402_90)"/>
<path d="M337.234 193.693L317.182 198.706L292.573 211.466L278.445 173.185L337.234 136.271V193.693Z" fill="url(#paint54_linear_402_90)"/>
<path d="M430.207 166.34L394.204 176.366V169.074L370.051 115.755L399.673 96.1582L430.207 166.34Z" fill="url(#paint55_linear_402_90)"/>
<path d="M497.645 147.206L459.82 158.143L427.008 80.2141L457.541 61.5293L497.645 147.206Z" fill="url(#paint56_linear_402_90)"/>
<path d="M559.627 129.429L552.336 133.531L527.271 139.911L483.977 46.4868L515.877 26.8906L559.627 129.429Z" fill="url(#paint57_linear_402_90)"/>
<path d="M630.725 155.856V180.466L609.762 192.77L590.621 155.856C600.191 152.211 612.496 146.742 622.066 142.185L630.725 155.856Z" fill="#5ECDE7"/>
<path d="M605.663 111.651C602.472 113.474 598.827 115.753 594.725 117.576L576.496 67.4459L583.788 62.8887L605.663 111.651Z" fill="#5ECDE7"/>
<path d="M627.984 80.1997V86.5798L609.299 46.476L610.666 45.5645L627.984 80.1997Z" fill="#5ECDE7"/>
<path d="M211.448 144.457C219.196 147.647 225.576 155.395 230.133 161.775L200.055 180.004L180.459 145.369L195.042 136.71C199.144 138.989 204.612 141.723 211.448 144.457Z" fill="url(#paint58_linear_402_90)"/>
<path d="M307.15 67.8984L323.1 103.445L261.577 141.726C255.197 130.789 245.171 118.028 233.322 115.294C237.424 112.56 241.981 108.914 246.994 104.357C263.4 90.6848 291.655 75.6458 307.15 67.8984Z" fill="url(#paint59_linear_402_90)"/>
<path d="M378.71 46.4746L385.546 63.7922L355.012 83.3885L342.252 57.412C345.898 56.5006 349.999 55.5891 355.012 54.6776C363.671 52.399 371.874 49.209 378.71 46.4746Z" fill="url(#paint60_linear_402_90)"/>
<path d="M229.691 15.499L251.566 48.767L142.647 118.949L132.621 95.7068L139.457 52.4128L229.691 15.499Z" fill="url(#paint61_linear_402_90)"/>
<path d="M617.972 569.208L607.946 622.984L500.851 663.999L467.127 610.679L601.566 528.648L617.972 569.208Z" fill="url(#paint62_linear_402_90)"/>
<path d="M604.749 570.564L597.001 613.858L506.312 648.493L484.893 614.77L595.634 546.866L604.749 570.564Z" fill="url(#paint63_linear_402_90)"/>
</g>
<defs>
<linearGradient id="paint0_linear_402_90" x1="64.4256" y1="83.1249" x2="128.318" y2="83.1249" gradientUnits="userSpaceOnUse">
<stop stop-color="#0080D0"/>
<stop offset="1" stop-color="#0080D0"/>
</linearGradient>
<linearGradient id="paint1_linear_402_90" x1="1120.4" y1="396.463" x2="339.066" y2="375.427" gradientUnits="userSpaceOnUse">
<stop stop-color="#D7E5FB"/>
<stop offset="1" stop-color="#7AAFFF"/>
</linearGradient>
<linearGradient id="paint2_linear_402_90" x1="1122.32" y1="323.712" x2="341.021" y2="302.677" gradientUnits="userSpaceOnUse">
<stop stop-color="#D7E5FB"/>
<stop offset="1" stop-color="#7AAFFF"/>
</linearGradient>
<linearGradient id="paint3_linear_402_90" x1="1123.37" y1="287.576" x2="342.011" y2="266.539" gradientUnits="userSpaceOnUse">
<stop stop-color="#D7E5FB"/>
<stop offset="1" stop-color="#7AAFFF"/>
</linearGradient>
<linearGradient id="paint4_linear_402_90" x1="1125.2" y1="219.55" x2="343.846" y2="198.514" gradientUnits="userSpaceOnUse">
<stop stop-color="#D7E5FB"/>
<stop offset="1" stop-color="#7AAFFF"/>
</linearGradient>
<linearGradient id="paint5_linear_402_90" x1="1121.27" y1="365.039" x2="339.924" y2="344.003" gradientUnits="userSpaceOnUse">
<stop stop-color="#D7E5FB"/>
<stop offset="1" stop-color="#7AAFFF"/>
</linearGradient>
<linearGradient id="paint6_linear_402_90" x1="1119.62" y1="426.199" x2="338.272" y2="405.163" gradientUnits="userSpaceOnUse">
<stop stop-color="#D7E5FB"/>
<stop offset="1" stop-color="#7AAFFF"/>
</linearGradient>
<linearGradient id="paint7_linear_402_90" x1="1120.67" y1="386.642" x2="339.333" y2="365.606" gradientUnits="userSpaceOnUse">
<stop stop-color="#D7E5FB"/>
<stop offset="1" stop-color="#7AAFFF"/>
</linearGradient>
<linearGradient id="paint8_linear_402_90" x1="1118.49" y1="467.36" x2="337.157" y2="446.323" gradientUnits="userSpaceOnUse">
<stop stop-color="#D7E5FB"/>
<stop offset="1" stop-color="#7AAFFF"/>
</linearGradient>
<linearGradient id="paint9_linear_402_90" x1="1115.91" y1="563.513" x2="334.581" y2="542.477" gradientUnits="userSpaceOnUse">
<stop stop-color="#D7E5FB"/>
<stop offset="1" stop-color="#7AAFFF"/>
</linearGradient>
<linearGradient id="paint10_linear_402_90" x1="1118.93" y1="452.498" x2="337.575" y2="431.462" gradientUnits="userSpaceOnUse">
<stop stop-color="#D7E5FB"/>
<stop offset="1" stop-color="#7AAFFF"/>
</linearGradient>
<linearGradient id="paint11_linear_402_90" x1="1115.49" y1="581.064" x2="334.115" y2="560.027" gradientUnits="userSpaceOnUse">
<stop stop-color="#D7E5FB"/>
<stop offset="1" stop-color="#7AAFFF"/>
</linearGradient>
<linearGradient id="paint12_linear_402_90" x1="1116.3" y1="548.653" x2="334.985" y2="527.617" gradientUnits="userSpaceOnUse">
<stop stop-color="#D7E5FB"/>
<stop offset="1" stop-color="#7AAFFF"/>
</linearGradient>
<linearGradient id="paint13_linear_402_90" x1="1118.03" y1="485.067" x2="336.691" y2="464.031" gradientUnits="userSpaceOnUse">
<stop stop-color="#D7E5FB"/>
<stop offset="1" stop-color="#7AAFFF"/>
</linearGradient>
<linearGradient id="paint14_linear_402_90" x1="1119.59" y1="427.902" x2="338.231" y2="406.865" gradientUnits="userSpaceOnUse">
<stop stop-color="#D7E5FB"/>
<stop offset="1" stop-color="#7AAFFF"/>
</linearGradient>
<linearGradient id="paint15_linear_402_90" x1="1121.01" y1="376.746" x2="339.605" y2="355.708" gradientUnits="userSpaceOnUse">
<stop stop-color="#D7E5FB"/>
<stop offset="1" stop-color="#7AAFFF"/>
</linearGradient>
<linearGradient id="paint16_linear_402_90" x1="1122.35" y1="325.367" x2="341.01" y2="304.331" gradientUnits="userSpaceOnUse">
<stop stop-color="#D7E5FB"/>
<stop offset="1" stop-color="#7AAFFF"/>
</linearGradient>
<linearGradient id="paint17_linear_402_90" x1="1123.7" y1="275.167" x2="342.352" y2="254.131" gradientUnits="userSpaceOnUse">
<stop stop-color="#D7E5FB"/>
<stop offset="1" stop-color="#7AAFFF"/>
</linearGradient>
<linearGradient id="paint18_linear_402_90" x1="-29.989" y1="305.347" x2="667.201" y2="221.204" gradientUnits="userSpaceOnUse">
<stop stop-color="#75AFF7"/>
<stop offset="1" stop-color="#1075FF"/>
</linearGradient>
<linearGradient id="paint19_linear_402_90" x1="1118.45" y1="472.23" x2="337.057" y2="451.192" gradientUnits="userSpaceOnUse">
<stop stop-color="#D7E5FB"/>
<stop offset="1" stop-color="#7AAFFF"/>
</linearGradient>
<linearGradient id="paint20_linear_402_90" x1="1122.81" y1="308.157" x2="341.455" y2="287.12" gradientUnits="userSpaceOnUse">
<stop stop-color="#D7E5FB"/>
<stop offset="1" stop-color="#7AAFFF"/>
</linearGradient>
<linearGradient id="paint21_linear_402_90" x1="1122.01" y1="338.381" x2="340.652" y2="317.344" gradientUnits="userSpaceOnUse">
<stop stop-color="#D7E5FB"/>
<stop offset="1" stop-color="#7AAFFF"/>
</linearGradient>
<linearGradient id="paint22_linear_402_90" x1="1124.98" y1="228.034" x2="343.613" y2="206.997" gradientUnits="userSpaceOnUse">
<stop stop-color="#D7E5FB"/>
<stop offset="1" stop-color="#7AAFFF"/>
</linearGradient>
<linearGradient id="paint23_linear_402_90" x1="1124.17" y1="260.154" x2="342.756" y2="239.116" gradientUnits="userSpaceOnUse">
<stop stop-color="#D7E5FB"/>
<stop offset="1" stop-color="#7AAFFF"/>
</linearGradient>
<linearGradient id="paint24_linear_402_90" x1="1124.31" y1="253.423" x2="342.931" y2="232.386" gradientUnits="userSpaceOnUse">
<stop stop-color="#D7E5FB"/>
<stop offset="1" stop-color="#7AAFFF"/>
</linearGradient>
<linearGradient id="paint25_linear_402_90" x1="1124.74" y1="234.434" x2="343.44" y2="213.399" gradientUnits="userSpaceOnUse">
<stop stop-color="#D7E5FB"/>
<stop offset="1" stop-color="#7AAFFF"/>
</linearGradient>
<linearGradient id="paint26_linear_402_90" x1="1125.87" y1="195.271" x2="344.49" y2="174.234" gradientUnits="userSpaceOnUse">
<stop stop-color="#D7E5FB"/>
<stop offset="1" stop-color="#7AAFFF"/>
</linearGradient>
<linearGradient id="paint27_linear_402_90" x1="1126.95" y1="154.907" x2="345.583" y2="133.87" gradientUnits="userSpaceOnUse">
<stop stop-color="#D7E5FB"/>
<stop offset="1" stop-color="#7AAFFF"/>
</linearGradient>
<linearGradient id="paint28_linear_402_90" x1="1127.7" y1="126.505" x2="346.345" y2="105.468" gradientUnits="userSpaceOnUse">
<stop stop-color="#D7E5FB"/>
<stop offset="1" stop-color="#7AAFFF"/>
</linearGradient>
<linearGradient id="paint29_linear_402_90" x1="1128.37" y1="97.938" x2="347.039" y2="76.9026" gradientUnits="userSpaceOnUse">
<stop stop-color="#D7E5FB"/>
<stop offset="1" stop-color="#7AAFFF"/>
</linearGradient>
<linearGradient id="paint30_linear_402_90" x1="1126.18" y1="181.986" x2="344.875" y2="160.95" gradientUnits="userSpaceOnUse">
<stop stop-color="#D7E5FB"/>
<stop offset="1" stop-color="#7AAFFF"/>
</linearGradient>
<linearGradient id="paint31_linear_402_90" x1="1128.32" y1="104.486" x2="346.931" y2="83.4484" gradientUnits="userSpaceOnUse">
<stop stop-color="#D7E5FB"/>
<stop offset="1" stop-color="#7AAFFF"/>
</linearGradient>
<linearGradient id="paint32_linear_402_90" x1="1128.89" y1="83.5168" x2="347.474" y2="62.4787" gradientUnits="userSpaceOnUse">
<stop stop-color="#D7E5FB"/>
<stop offset="1" stop-color="#7AAFFF"/>
</linearGradient>
<linearGradient id="paint33_linear_402_90" x1="1126.1" y1="184.525" x2="344.78" y2="163.489" gradientUnits="userSpaceOnUse">
<stop stop-color="#D7E5FB"/>
<stop offset="1" stop-color="#7AAFFF"/>
</linearGradient>
<linearGradient id="paint34_linear_402_90" x1="1127.68" y1="127.912" x2="346.317" y2="106.875" gradientUnits="userSpaceOnUse">
<stop stop-color="#D7E5FB"/>
<stop offset="1" stop-color="#7AAFFF"/>
</linearGradient>
<linearGradient id="paint35_linear_402_90" x1="1128.81" y1="86.0464" x2="347.442" y2="65.0097" gradientUnits="userSpaceOnUse">
<stop stop-color="#D7E5FB"/>
<stop offset="1" stop-color="#7AAFFF"/>
</linearGradient>
<linearGradient id="paint36_linear_402_90" x1="1128.61" y1="94.2197" x2="347.227" y2="73.1824" gradientUnits="userSpaceOnUse">
<stop stop-color="#D7E5FB"/>
<stop offset="1" stop-color="#7AAFFF"/>
</linearGradient>
<linearGradient id="paint37_linear_402_90" x1="-19.7685" y1="390.252" x2="677.508" y2="306.098" gradientUnits="userSpaceOnUse">
<stop stop-color="#75AFF7"/>
<stop offset="1" stop-color="#1075FF"/>
</linearGradient>
<linearGradient id="paint38_linear_402_90" x1="80.4189" y1="296.355" x2="135.382" y2="296.355" gradientUnits="userSpaceOnUse">
<stop stop-color="#36D7E2"/>
<stop offset="1" stop-color="#23C1D9"/>
</linearGradient>
<linearGradient id="paint39_linear_402_90" x1="-32.2693" y1="286.553" x2="664.911" y2="202.41" gradientUnits="userSpaceOnUse">
<stop stop-color="#75AFF7"/>
<stop offset="1" stop-color="#1075FF"/>
</linearGradient>
<linearGradient id="paint40_linear_402_90" x1="-40.9202" y1="215.023" x2="656.342" y2="130.87" gradientUnits="userSpaceOnUse">
<stop stop-color="#75AFF7"/>
<stop offset="1" stop-color="#1075FF"/>
</linearGradient>
<linearGradient id="paint41_linear_402_90" x1="-25.3268" y1="344.111" x2="671.831" y2="259.972" gradientUnits="userSpaceOnUse">
<stop stop-color="#75AFF7"/>
<stop offset="1" stop-color="#1075FF"/>
</linearGradient>
<linearGradient id="paint42_linear_402_90" x1="-14.575" y1="433.362" x2="682.672" y2="349.212" gradientUnits="userSpaceOnUse">
<stop stop-color="#75AFF7"/>
<stop offset="1" stop-color="#1075FF"/>
</linearGradient>
<linearGradient id="paint43_linear_402_90" x1="276.959" y1="364.657" x2="324.81" y2="364.657" gradientUnits="userSpaceOnUse">
<stop stop-color="#36D7E2"/>
<stop offset="1" stop-color="#23C1D9"/>
</linearGradient>
<linearGradient id="paint44_linear_402_90" x1="-10.7008" y1="465.236" x2="686.471" y2="381.095" gradientUnits="userSpaceOnUse">
<stop stop-color="#75AFF7"/>
<stop offset="1" stop-color="#1075FF"/>
</linearGradient>
<linearGradient id="paint45_linear_402_90" x1="4.82847" y1="593.878" x2="702.025" y2="509.734" gradientUnits="userSpaceOnUse">
<stop stop-color="#75AFF7"/>
<stop offset="1" stop-color="#1075FF"/>
</linearGradient>
<linearGradient id="paint46_linear_402_90" x1="482.248" y1="440.861" x2="628.746" y2="440.861" gradientUnits="userSpaceOnUse">
<stop stop-color="#36D7E2"/>
<stop offset="1" stop-color="#23C1D9"/>
</linearGradient>
<linearGradient id="paint47_linear_402_90" x1="2.2309" y1="572.525" x2="699.452" y2="488.378" gradientUnits="userSpaceOnUse">
<stop stop-color="#75AFF7"/>
<stop offset="1" stop-color="#1075FF"/>
</linearGradient>
<linearGradient id="paint48_linear_402_90" x1="-6.38768" y1="500.942" x2="690.808" y2="416.798" gradientUnits="userSpaceOnUse">
<stop stop-color="#75AFF7"/>
<stop offset="1" stop-color="#1075FF"/>
</linearGradient>
<linearGradient id="paint49_linear_402_90" x1="-11.6442" y1="457.517" x2="685.596" y2="373.367" gradientUnits="userSpaceOnUse">
<stop stop-color="#75AFF7"/>
<stop offset="1" stop-color="#1075FF"/>
</linearGradient>
<linearGradient id="paint50_linear_402_90" x1="-16.3548" y1="418.475" x2="680.874" y2="334.327" gradientUnits="userSpaceOnUse">
<stop stop-color="#75AFF7"/>
<stop offset="1" stop-color="#1075FF"/>
</linearGradient>
<linearGradient id="paint51_linear_402_90" x1="-21.1039" y1="378.987" x2="676.097" y2="294.843" gradientUnits="userSpaceOnUse">
<stop stop-color="#75AFF7"/>
<stop offset="1" stop-color="#1075FF"/>
</linearGradient>
<linearGradient id="paint52_linear_402_90" x1="-24.5192" y1="351.053" x2="672.748" y2="266.9" gradientUnits="userSpaceOnUse">
<stop stop-color="#75AFF7"/>
<stop offset="1" stop-color="#1075FF"/>
</linearGradient>
<linearGradient id="paint53_linear_402_90" x1="-37.1751" y1="245.842" x2="659.988" y2="161.702" gradientUnits="userSpaceOnUse">
<stop stop-color="#75AFF7"/>
<stop offset="1" stop-color="#1075FF"/>
</linearGradient>
<linearGradient id="paint54_linear_402_90" x1="-40.6916" y1="216.794" x2="656.513" y2="132.649" gradientUnits="userSpaceOnUse">
<stop stop-color="#75AFF7"/>
<stop offset="1" stop-color="#1075FF"/>
</linearGradient>
<linearGradient id="paint55_linear_402_90" x1="-43.9866" y1="189.522" x2="653.23" y2="105.375" gradientUnits="userSpaceOnUse">
<stop stop-color="#75AFF7"/>
<stop offset="1" stop-color="#1075FF"/>
</linearGradient>
<linearGradient id="paint56_linear_402_90" x1="427.135" y1="109.909" x2="497.502" y2="109.909" gradientUnits="userSpaceOnUse">
<stop stop-color="#36D7E2"/>
<stop offset="1" stop-color="#23C1D9"/>
</linearGradient>
<linearGradient id="paint57_linear_402_90" x1="-48.503" y1="152.158" x2="648.711" y2="68.0119" gradientUnits="userSpaceOnUse">
<stop stop-color="#75AFF7"/>
<stop offset="1" stop-color="#1075FF"/>
</linearGradient>
<linearGradient id="paint58_linear_402_90" x1="-44.1949" y1="187.595" x2="652.937" y2="103.459" gradientUnits="userSpaceOnUse">
<stop stop-color="#75AFF7"/>
<stop offset="1" stop-color="#1075FF"/>
</linearGradient>
<linearGradient id="paint59_linear_402_90" x1="-49.3715" y1="145.088" x2="647.87" y2="60.9381" gradientUnits="userSpaceOnUse">
<stop stop-color="#75AFF7"/>
<stop offset="1" stop-color="#1075FF"/>
</linearGradient>
<linearGradient id="paint60_linear_402_90" x1="-52.8967" y1="115.564" x2="644.298" y2="31.4193" gradientUnits="userSpaceOnUse">
<stop stop-color="#75AFF7"/>
<stop offset="1" stop-color="#1075FF"/>
</linearGradient>
<linearGradient id="paint61_linear_402_90" x1="-55.2235" y1="96.4" x2="642.005" y2="12.2518" gradientUnits="userSpaceOnUse">
<stop stop-color="#75AFF7"/>
<stop offset="1" stop-color="#1075FF"/>
</linearGradient>
<linearGradient id="paint62_linear_402_90" x1="1114.66" y1="611.346" x2="333.299" y2="590.309" gradientUnits="userSpaceOnUse">
<stop stop-color="#D7E5FB"/>
<stop offset="1" stop-color="#7AAFFF"/>
</linearGradient>
<linearGradient id="paint63_linear_402_90" x1="13.1124" y1="662.595" x2="710.323" y2="578.449" gradientUnits="userSpaceOnUse">
<stop stop-color="#75AFF7"/>
<stop offset="1" stop-color="#1075FF"/>
</linearGradient>
</defs>
</svg>
