<svg width="644" height="665" viewBox="0 0 644 665" fill="none" xmlns="http://www.w3.org/2000/svg">
<g opacity="0.2">
<path d="M116.836 43.8608C108.427 35.195 94.5275 25.6713 82.1723 32.1063L73.9355 36.9968C77.4533 35.2808 89.3796 31.5056 106.025 46.5206C115.377 54.9291 122.155 66.512 125.759 78.6098C127.561 84.53 125.416 105.98 120.525 110.956C108.599 122.968 98.2169 139.185 98.2169 139.185L107.483 133.779C107.483 133.779 131.078 107.267 132.88 104.436C137.256 97.5717 137.342 88.8201 135.969 81.0123C133.738 67.2843 126.531 53.9852 116.836 43.8608Z" fill="#A81849"/>
<path d="M128.249 91.8203C127.477 78.6929 121.986 65.6513 114.178 55.2695C107.142 45.9173 96.2457 36.1361 83.9763 35.0207C78.7425 34.5917 73.5945 36.1361 69.9909 39.9971C65.7009 44.7161 64.3281 51.4085 64.3281 57.5003C64.3281 80.7521 98.2191 139.182 98.2191 139.182C98.2191 139.182 121.128 114.042 123.788 110.353C127.649 105.119 128.592 98.2553 128.249 91.8203ZM114.521 85.8143C114.264 92.8499 109.888 99.9713 102.166 99.1991C92.4706 98.1695 81.9172 86.5865 78.571 73.2017C75.139 59.8169 80.2869 49.7783 89.8965 50.7221C104.654 52.2665 115.036 72.7727 114.521 85.8143Z" fill="url(#paint0_linear_156_90)"/>
<path d="M85.0011 64.626C84.9153 59.478 86.4597 54.759 89.1195 50.7264C79.9389 50.2974 75.2199 60.1644 78.5661 73.206C81.9981 86.5908 92.5515 98.2596 102.161 99.2034C103.019 99.2892 103.877 99.2892 104.649 99.2034C106.022 99.0318 107.309 98.6886 108.425 98.0022C110.055 97.0584 111.256 95.7714 112.2 94.227C96.4125 93.9696 85.1727 79.5552 85.0011 64.626Z" fill="#A81849"/>
</g>
<g opacity="0.1">
<path d="M190.818 387.445L131.574 421.625L100.129 356L159.373 320.909L190.818 387.445Z" fill="url(#paint1_linear_156_90)"/>
<path d="M152.081 312.256L95.1156 346.435L64.582 282.178L122.004 248.454L152.081 312.256Z" fill="url(#paint2_linear_156_90)"/>
<path d="M216.796 277.166L163.476 309.523L132.486 245.721L184.895 216.555L216.796 277.166Z" fill="url(#paint3_linear_156_90)"/>
<path d="M182.624 207.44L128.392 237.062L102.416 180.096L154.825 150.93L182.624 207.44Z" fill="url(#paint4_linear_156_90)"/>
<path d="M82.8146 354.643L31.7732 386.088L0.328125 320.464L51.3695 287.651L82.8146 354.643Z" fill="url(#paint5_linear_156_90)"/>
<path d="M281.96 417.531L226.817 450.343L201.752 389.275L254.616 356.919L281.96 417.531Z" fill="url(#paint6_linear_156_90)"/>
<path d="M341.202 380.159L289.249 412.06L260.994 351.449L313.858 319.092L341.202 380.159Z" fill="url(#paint7_linear_156_90)"/>
<path d="M219.53 461.274L165.754 491.808L135.221 428.006L192.642 394.282L219.53 461.274Z" fill="url(#paint8_linear_156_90)"/>
<path d="M394.982 475.411L449.669 444.422L513.471 563.367L385.868 647.22L360.803 588.432L432.807 542.403L394.982 475.411Z" fill="url(#paint9_linear_156_90)"/>
<path d="M641.537 383.804L554.949 439.858L574.545 476.772L641.537 435.757V484.975L528.061 554.245L466.082 438.491L641.537 324.104V383.804Z" fill="url(#paint10_linear_156_90)"/>
<path d="M257.359 554.247L317.06 521.435L341.669 583.413L236.396 649.494L235.029 647.215L169.404 498.648L222.724 467.203L257.359 554.247Z" fill="url(#paint11_linear_156_90)"/>
<path d="M416.863 538.289L355.34 577.025L327.996 516.869L384.051 481.778L416.863 538.289Z" fill="url(#paint12_linear_156_90)"/>
<path d="M376.301 473.582L263.736 538.751L230.924 461.278L343.944 389.729L376.301 473.582Z" fill="url(#paint13_linear_156_90)"/>
<path d="M443.751 433.939L388.152 465.384L355.34 383.354L401.824 353.275L443.751 433.939Z" fill="url(#paint14_linear_156_90)"/>
<path d="M531.249 375.591L460.155 422.53L416.861 344.145L488.41 298.117L531.249 375.591Z" fill="url(#paint15_linear_156_90)"/>
<path d="M608.278 326.387L537.185 372.871L493.891 294.941L565.44 248.913L608.278 326.387Z" fill="url(#paint16_linear_156_90)"/>
<path d="M643.365 305.876L614.198 324.105L570.904 245.72L643.365 201.515V305.876Z" fill="url(#paint17_linear_156_90)"/>
<path d="M596.874 219.736L411.849 334.579L395.443 269.866L561.328 153.2L596.874 219.736Z" fill="url(#paint18_linear_156_90)"/>
<path d="M149.356 497.733L98.7698 529.634L36.791 394.283L88.2881 361.927L149.356 497.733Z" fill="url(#paint19_linear_156_90)"/>
<path d="M371.743 207.894V245.263L395.441 345.523L351.691 369.676L291.535 238.883L327.993 217.919L371.743 207.894Z" fill="url(#paint20_linear_156_90)"/>
<path d="M228.2 326.383L237.314 319.092L220.908 285.368L281.975 248.454L312.965 312.712L198.577 382.893L168.955 316.813L210.882 291.292L228.2 326.383Z" fill="url(#paint21_linear_156_90)"/>
<path d="M395.444 269.866L388.152 233.408V202.419L561.328 153.2L395.444 269.866Z" fill="url(#paint22_linear_156_90)"/>
<path d="M120.632 243.891L55.0076 279.438L33.1328 227.485L92.8329 186.47L120.632 243.891Z" fill="url(#paint23_linear_156_90)"/>
<path d="M253.707 251.185L227.274 268.047L194.918 211.081L224.084 192.396L253.707 251.185Z" fill="url(#paint24_linear_156_90)"/>
<path d="M276.956 237.068L256.903 249.828L227.281 191.04L253.713 174.178L276.956 237.068Z" fill="url(#paint25_linear_156_90)"/>
<path d="M370.829 171.436V198.323L322.066 211.539L286.064 230.224L263.277 168.701L343.485 118.571L370.829 171.436Z" fill="url(#paint26_linear_156_90)"/>
<path d="M447.852 175.994L382.227 193.768V172.804L354.428 112.193L405.469 78.4688L447.852 175.994Z" fill="url(#paint27_linear_156_90)"/>
<path d="M515.298 155.938L452.863 174.623L411.848 76.186L463.345 44.2852L515.298 155.938Z" fill="url(#paint28_linear_156_90)"/>
<path d="M576.366 136.347L557.226 145.917L520.768 155.488L468.359 42.4675L522.135 9.65527L576.366 136.347Z" fill="url(#paint29_linear_156_90)"/>
<path d="M643.363 153.201V188.747L605.082 211.534L573.182 150.466C573.182 150.466 617.387 133.604 626.046 126.769L643.363 153.201Z" fill="url(#paint30_linear_156_90)"/>
<path d="M621.483 117.203C613.735 123.583 587.759 136.344 587.759 136.344L560.871 63.4276L588.67 45.6543L621.483 117.203Z" fill="url(#paint31_linear_156_90)"/>
<path d="M641.071 78.0037V104.892L626.488 113.095L593.676 42.457L616.006 28.7852L641.071 78.0037Z" fill="url(#paint32_linear_156_90)"/>
<path d="M216.799 133.607C236.851 141.81 247.333 166.875 247.333 166.875L196.291 198.32L164.391 141.81L196.747 122.214C196.292 122.214 196.747 125.86 216.799 133.607Z" fill="url(#paint33_linear_156_90)"/>
<path d="M313.416 52.0332L339.392 109.455L256.906 160.496C256.906 160.496 243.234 129.962 229.562 128.14C216.346 126.317 204.953 115.835 204.953 115.835C204.953 115.835 214.068 116.746 238.677 95.783C264.198 74.8196 313.416 52.0332 313.416 52.0332Z" fill="url(#paint34_linear_156_90)"/>
<path d="M385.871 30.6143L400.91 69.8068L349.868 103.075L324.348 50.2106C324.348 50.2106 335.285 47.0205 352.147 43.3747C369.009 39.2731 385.871 30.6143 385.871 30.6143Z" fill="url(#paint35_linear_156_90)"/>
<path d="M234.577 0.994141L269.668 53.8584L137.051 138.624L120.189 98.5197L128.393 44.2882L234.577 0.994141Z" fill="url(#paint36_linear_156_90)"/>
<path d="M174.874 382.439L137.049 403.858L116.541 361.02L153.911 338.689L174.874 382.439Z" fill="url(#paint37_linear_156_90)"/>
<path d="M135.678 307.243L100.587 328.662L80.5352 287.191L116.538 266.228L135.678 307.243Z" fill="url(#paint38_linear_156_90)"/>
<path d="M199.928 272.605L168.939 291.745L148.887 250.73L179.42 233.868L199.928 272.605Z" fill="url(#paint39_linear_156_90)"/>
<path d="M166.212 202.434L134.311 219.752L118.816 185.117L149.35 168.255L166.212 202.434Z" fill="url(#paint40_linear_156_90)"/>
<path d="M66.8584 349.615L37.2362 367.844L16.7285 325.006L45.895 305.865L66.8584 349.615Z" fill="url(#paint41_linear_156_90)"/>
<path d="M266.012 412.523L233.2 432.12L217.705 394.294L249.15 374.698L266.012 412.523Z" fill="url(#paint42_linear_156_90)"/>
<path d="M325.261 375.156L294.728 393.84L277.41 356.471L308.4 337.33L325.261 375.156Z" fill="url(#paint43_linear_156_90)"/>
<path d="M204.032 455.805L171.219 474.49L151.623 433.018L186.258 412.511L204.032 455.805Z" fill="url(#paint44_linear_156_90)"/>
<path d="M411.853 480.42L444.666 461.735L497.074 559.261L391.801 628.531L376.307 593.44L449.679 546.5L411.853 480.42Z" fill="url(#paint45_linear_156_90)"/>
<path d="M629.236 376.964L538.547 435.753L569.536 494.541L629.236 458.083V478.135L532.622 536.468L482.492 442.589L629.236 347.342V376.964Z" fill="url(#paint46_linear_156_90)"/>
<path d="M250.974 572.03L310.674 539.218L326.169 578.411L241.86 631.275L185.35 503.671L216.795 485.442L250.974 572.03Z" fill="#5ECDE7"/>
<path d="M399.998 534.183L360.805 558.792L343.943 521.878L379.49 499.548L399.998 534.183Z" fill="url(#paint47_linear_156_90)"/>
<path d="M360.813 468.123L269.668 520.531L246.426 466.3L337.571 408.423L360.813 468.123Z" fill="url(#paint48_linear_156_90)"/>
<path d="M427.354 428.923L394.542 447.608L370.844 388.363L397.276 371.046L427.354 428.923Z" fill="url(#paint49_linear_156_90)"/>
<path d="M514.397 371.495L464.722 404.307L433.277 348.253L483.863 315.896L514.397 371.495Z" fill="url(#paint50_linear_156_90)"/>
<path d="M591.41 322.282L541.736 355.095L510.291 299.04L560.877 266.684L591.41 322.282Z" fill="url(#paint51_linear_156_90)"/>
<path d="M631.058 299.053L618.754 306.345L587.309 250.29L631.058 223.858V299.053Z" fill="#5ECDE7"/>
<path d="M133.406 492.72L104.239 511.404L52.7422 399.296L82.8202 380.155L133.406 492.72Z" fill="#5ECDE7"/>
<path d="M381.314 339.141L357.616 351.901L317.057 264.857H363.541L381.314 339.141Z" fill="url(#paint52_linear_156_90)"/>
<path d="M104.235 238.888L61.397 261.674L48.6367 232.052L87.8292 205.164L104.235 238.888Z" fill="url(#paint53_linear_156_90)"/>
<path d="M337.562 194.687L317.51 199.7L292.901 212.461L278.773 174.179L337.562 137.266V194.687Z" fill="url(#paint54_linear_156_90)"/>
<path d="M430.535 167.334L394.532 177.36V170.069L370.379 116.749L400.001 97.1523L430.535 167.334Z" fill="url(#paint55_linear_156_90)"/>
<path d="M497.974 148.2L460.148 159.138L427.336 81.2083L457.87 62.5234L497.974 148.2Z" fill="url(#paint56_linear_156_90)"/>
<path d="M559.955 130.423L552.664 134.525L527.599 140.905L484.305 47.481L516.206 27.8848L559.955 130.423Z" fill="url(#paint57_linear_156_90)"/>
<path d="M631.053 156.851V181.46L610.09 193.764L590.949 156.851C600.519 153.205 612.824 147.736 622.394 143.179L631.053 156.851Z" fill="#5ECDE7"/>
<path d="M605.991 112.645C602.801 114.468 599.155 116.747 595.053 118.57L576.824 68.4401L584.116 63.8828L605.991 112.645Z" fill="#5ECDE7"/>
<path d="M628.312 81.1938V87.574L609.627 47.4701L610.994 46.5586L628.312 81.1938Z" fill="#5ECDE7"/>
<path d="M211.776 145.452C219.524 148.642 225.904 156.389 230.461 162.769L200.383 180.998L180.787 146.363L195.37 137.704C199.472 139.983 204.941 142.717 211.776 145.452Z" fill="url(#paint58_linear_156_90)"/>
<path d="M307.478 68.8926L323.428 104.439L261.905 142.72C255.525 131.783 245.499 119.022 233.65 116.288C237.752 113.554 242.309 109.908 247.322 105.351C263.728 91.6789 291.983 76.6399 307.478 68.8926Z" fill="url(#paint59_linear_156_90)"/>
<path d="M379.038 47.4688L385.874 64.7863L355.34 84.3826L342.58 58.4062C346.226 57.4947 350.327 56.5832 355.34 55.6718C363.999 53.3931 372.202 50.2031 379.038 47.4688Z" fill="url(#paint60_linear_156_90)"/>
<path d="M230.019 16.4932L251.894 49.7611L142.975 119.943L132.949 96.7009L139.785 53.4069L230.019 16.4932Z" fill="url(#paint61_linear_156_90)"/>
<path d="M618.301 570.202L608.275 623.978L501.179 664.993L467.455 611.673L601.894 529.643L618.301 570.202Z" fill="url(#paint62_linear_156_90)"/>
<path d="M605.077 571.558L597.329 614.852L506.64 649.487L485.221 615.764L595.962 547.86L605.077 571.558Z" fill="url(#paint63_linear_156_90)"/>
</g>
<defs>
<linearGradient id="paint0_linear_156_90" x1="64.4256" y1="87.1249" x2="128.318" y2="87.1249" gradientUnits="userSpaceOnUse">
<stop stop-color="#DD3970"/>
<stop offset="1" stop-color="#D61F5C"/>
</linearGradient>
<linearGradient id="paint1_linear_156_90" x1="1120.72" y1="397.457" x2="339.394" y2="376.421" gradientUnits="userSpaceOnUse">
<stop stop-color="#D7E5FB"/>
<stop offset="1" stop-color="#7AAFFF"/>
</linearGradient>
<linearGradient id="paint2_linear_156_90" x1="1122.65" y1="324.706" x2="341.35" y2="303.671" gradientUnits="userSpaceOnUse">
<stop stop-color="#D7E5FB"/>
<stop offset="1" stop-color="#7AAFFF"/>
</linearGradient>
<linearGradient id="paint3_linear_156_90" x1="1123.7" y1="288.57" x2="342.339" y2="267.534" gradientUnits="userSpaceOnUse">
<stop stop-color="#D7E5FB"/>
<stop offset="1" stop-color="#7AAFFF"/>
</linearGradient>
<linearGradient id="paint4_linear_156_90" x1="1125.53" y1="220.545" x2="344.174" y2="199.508" gradientUnits="userSpaceOnUse">
<stop stop-color="#D7E5FB"/>
<stop offset="1" stop-color="#7AAFFF"/>
</linearGradient>
<linearGradient id="paint5_linear_156_90" x1="1121.6" y1="366.034" x2="340.252" y2="344.997" gradientUnits="userSpaceOnUse">
<stop stop-color="#D7E5FB"/>
<stop offset="1" stop-color="#7AAFFF"/>
</linearGradient>
<linearGradient id="paint6_linear_156_90" x1="1119.95" y1="427.193" x2="338.6" y2="406.157" gradientUnits="userSpaceOnUse">
<stop stop-color="#D7E5FB"/>
<stop offset="1" stop-color="#7AAFFF"/>
</linearGradient>
<linearGradient id="paint7_linear_156_90" x1="1121" y1="387.636" x2="339.661" y2="366.6" gradientUnits="userSpaceOnUse">
<stop stop-color="#D7E5FB"/>
<stop offset="1" stop-color="#7AAFFF"/>
</linearGradient>
<linearGradient id="paint8_linear_156_90" x1="1118.82" y1="468.354" x2="337.485" y2="447.317" gradientUnits="userSpaceOnUse">
<stop stop-color="#D7E5FB"/>
<stop offset="1" stop-color="#7AAFFF"/>
</linearGradient>
<linearGradient id="paint9_linear_156_90" x1="1116.23" y1="564.507" x2="334.909" y2="543.471" gradientUnits="userSpaceOnUse">
<stop stop-color="#D7E5FB"/>
<stop offset="1" stop-color="#7AAFFF"/>
</linearGradient>
<linearGradient id="paint10_linear_156_90" x1="1119.26" y1="453.492" x2="337.903" y2="432.456" gradientUnits="userSpaceOnUse">
<stop stop-color="#D7E5FB"/>
<stop offset="1" stop-color="#7AAFFF"/>
</linearGradient>
<linearGradient id="paint11_linear_156_90" x1="1115.82" y1="582.059" x2="334.443" y2="561.021" gradientUnits="userSpaceOnUse">
<stop stop-color="#D7E5FB"/>
<stop offset="1" stop-color="#7AAFFF"/>
</linearGradient>
<linearGradient id="paint12_linear_156_90" x1="1116.63" y1="549.647" x2="335.313" y2="528.611" gradientUnits="userSpaceOnUse">
<stop stop-color="#D7E5FB"/>
<stop offset="1" stop-color="#7AAFFF"/>
</linearGradient>
<linearGradient id="paint13_linear_156_90" x1="1118.36" y1="486.061" x2="337.019" y2="465.025" gradientUnits="userSpaceOnUse">
<stop stop-color="#D7E5FB"/>
<stop offset="1" stop-color="#7AAFFF"/>
</linearGradient>
<linearGradient id="paint14_linear_156_90" x1="1119.92" y1="428.896" x2="338.56" y2="407.859" gradientUnits="userSpaceOnUse">
<stop stop-color="#D7E5FB"/>
<stop offset="1" stop-color="#7AAFFF"/>
</linearGradient>
<linearGradient id="paint15_linear_156_90" x1="1121.33" y1="377.74" x2="339.933" y2="356.702" gradientUnits="userSpaceOnUse">
<stop stop-color="#D7E5FB"/>
<stop offset="1" stop-color="#7AAFFF"/>
</linearGradient>
<linearGradient id="paint16_linear_156_90" x1="1122.68" y1="326.361" x2="341.338" y2="305.325" gradientUnits="userSpaceOnUse">
<stop stop-color="#D7E5FB"/>
<stop offset="1" stop-color="#7AAFFF"/>
</linearGradient>
<linearGradient id="paint17_linear_156_90" x1="1124.03" y1="276.161" x2="342.68" y2="255.125" gradientUnits="userSpaceOnUse">
<stop stop-color="#D7E5FB"/>
<stop offset="1" stop-color="#7AAFFF"/>
</linearGradient>
<linearGradient id="paint18_linear_156_90" x1="-29.6609" y1="306.341" x2="667.529" y2="222.198" gradientUnits="userSpaceOnUse">
<stop stop-color="#75AFF7"/>
<stop offset="1" stop-color="#1075FF"/>
</linearGradient>
<linearGradient id="paint19_linear_156_90" x1="1118.78" y1="473.224" x2="337.386" y2="452.186" gradientUnits="userSpaceOnUse">
<stop stop-color="#D7E5FB"/>
<stop offset="1" stop-color="#7AAFFF"/>
</linearGradient>
<linearGradient id="paint20_linear_156_90" x1="1123.14" y1="309.151" x2="341.784" y2="288.115" gradientUnits="userSpaceOnUse">
<stop stop-color="#D7E5FB"/>
<stop offset="1" stop-color="#7AAFFF"/>
</linearGradient>
<linearGradient id="paint21_linear_156_90" x1="1122.34" y1="339.375" x2="340.98" y2="318.338" gradientUnits="userSpaceOnUse">
<stop stop-color="#D7E5FB"/>
<stop offset="1" stop-color="#7AAFFF"/>
</linearGradient>
<linearGradient id="paint22_linear_156_90" x1="1125.31" y1="229.028" x2="343.941" y2="207.991" gradientUnits="userSpaceOnUse">
<stop stop-color="#D7E5FB"/>
<stop offset="1" stop-color="#7AAFFF"/>
</linearGradient>
<linearGradient id="paint23_linear_156_90" x1="1124.5" y1="261.148" x2="343.084" y2="240.11" gradientUnits="userSpaceOnUse">
<stop stop-color="#D7E5FB"/>
<stop offset="1" stop-color="#7AAFFF"/>
</linearGradient>
<linearGradient id="paint24_linear_156_90" x1="1124.64" y1="254.417" x2="343.26" y2="233.38" gradientUnits="userSpaceOnUse">
<stop stop-color="#D7E5FB"/>
<stop offset="1" stop-color="#7AAFFF"/>
</linearGradient>
<linearGradient id="paint25_linear_156_90" x1="1125.07" y1="235.428" x2="343.768" y2="214.393" gradientUnits="userSpaceOnUse">
<stop stop-color="#D7E5FB"/>
<stop offset="1" stop-color="#7AAFFF"/>
</linearGradient>
<linearGradient id="paint26_linear_156_90" x1="1126.19" y1="196.265" x2="344.819" y2="175.229" gradientUnits="userSpaceOnUse">
<stop stop-color="#D7E5FB"/>
<stop offset="1" stop-color="#7AAFFF"/>
</linearGradient>
<linearGradient id="paint27_linear_156_90" x1="1127.27" y1="155.901" x2="345.912" y2="134.865" gradientUnits="userSpaceOnUse">
<stop stop-color="#D7E5FB"/>
<stop offset="1" stop-color="#7AAFFF"/>
</linearGradient>
<linearGradient id="paint28_linear_156_90" x1="1128.03" y1="127.499" x2="346.673" y2="106.462" gradientUnits="userSpaceOnUse">
<stop stop-color="#D7E5FB"/>
<stop offset="1" stop-color="#7AAFFF"/>
</linearGradient>
<linearGradient id="paint29_linear_156_90" x1="1128.69" y1="98.9321" x2="347.367" y2="77.8967" gradientUnits="userSpaceOnUse">
<stop stop-color="#D7E5FB"/>
<stop offset="1" stop-color="#7AAFFF"/>
</linearGradient>
<linearGradient id="paint30_linear_156_90" x1="1126.51" y1="182.98" x2="345.203" y2="161.944" gradientUnits="userSpaceOnUse">
<stop stop-color="#D7E5FB"/>
<stop offset="1" stop-color="#7AAFFF"/>
</linearGradient>
<linearGradient id="paint31_linear_156_90" x1="1128.65" y1="105.48" x2="347.26" y2="84.4426" gradientUnits="userSpaceOnUse">
<stop stop-color="#D7E5FB"/>
<stop offset="1" stop-color="#7AAFFF"/>
</linearGradient>
<linearGradient id="paint32_linear_156_90" x1="1129.22" y1="84.5109" x2="347.802" y2="63.4728" gradientUnits="userSpaceOnUse">
<stop stop-color="#D7E5FB"/>
<stop offset="1" stop-color="#7AAFFF"/>
</linearGradient>
<linearGradient id="paint33_linear_156_90" x1="1126.43" y1="185.519" x2="345.109" y2="164.483" gradientUnits="userSpaceOnUse">
<stop stop-color="#D7E5FB"/>
<stop offset="1" stop-color="#7AAFFF"/>
</linearGradient>
<linearGradient id="paint34_linear_156_90" x1="1128.01" y1="128.906" x2="346.645" y2="107.869" gradientUnits="userSpaceOnUse">
<stop stop-color="#D7E5FB"/>
<stop offset="1" stop-color="#7AAFFF"/>
</linearGradient>
<linearGradient id="paint35_linear_156_90" x1="1129.14" y1="87.0406" x2="347.77" y2="66.0039" gradientUnits="userSpaceOnUse">
<stop stop-color="#D7E5FB"/>
<stop offset="1" stop-color="#7AAFFF"/>
</linearGradient>
<linearGradient id="paint36_linear_156_90" x1="1128.94" y1="95.2138" x2="347.555" y2="74.1765" gradientUnits="userSpaceOnUse">
<stop stop-color="#D7E5FB"/>
<stop offset="1" stop-color="#7AAFFF"/>
</linearGradient>
<linearGradient id="paint37_linear_156_90" x1="-19.4403" y1="391.247" x2="677.836" y2="307.093" gradientUnits="userSpaceOnUse">
<stop stop-color="#75AFF7"/>
<stop offset="1" stop-color="#1075FF"/>
</linearGradient>
<linearGradient id="paint38_linear_156_90" x1="80.7471" y1="297.35" x2="135.71" y2="297.35" gradientUnits="userSpaceOnUse">
<stop stop-color="#36D7E2"/>
<stop offset="1" stop-color="#23C1D9"/>
</linearGradient>
<linearGradient id="paint39_linear_156_90" x1="-31.9411" y1="287.547" x2="665.239" y2="203.404" gradientUnits="userSpaceOnUse">
<stop stop-color="#75AFF7"/>
<stop offset="1" stop-color="#1075FF"/>
</linearGradient>
<linearGradient id="paint40_linear_156_90" x1="-40.5921" y1="216.017" x2="656.67" y2="131.865" gradientUnits="userSpaceOnUse">
<stop stop-color="#75AFF7"/>
<stop offset="1" stop-color="#1075FF"/>
</linearGradient>
<linearGradient id="paint41_linear_156_90" x1="-24.9987" y1="345.106" x2="672.159" y2="260.966" gradientUnits="userSpaceOnUse">
<stop stop-color="#75AFF7"/>
<stop offset="1" stop-color="#1075FF"/>
</linearGradient>
<linearGradient id="paint42_linear_156_90" x1="-14.2469" y1="434.356" x2="683" y2="350.206" gradientUnits="userSpaceOnUse">
<stop stop-color="#75AFF7"/>
<stop offset="1" stop-color="#1075FF"/>
</linearGradient>
<linearGradient id="paint43_linear_156_90" x1="277.287" y1="365.651" x2="325.138" y2="365.651" gradientUnits="userSpaceOnUse">
<stop stop-color="#36D7E2"/>
<stop offset="1" stop-color="#23C1D9"/>
</linearGradient>
<linearGradient id="paint44_linear_156_90" x1="-10.3727" y1="466.231" x2="686.8" y2="382.09" gradientUnits="userSpaceOnUse">
<stop stop-color="#75AFF7"/>
<stop offset="1" stop-color="#1075FF"/>
</linearGradient>
<linearGradient id="paint45_linear_156_90" x1="5.15659" y1="594.873" x2="702.353" y2="510.728" gradientUnits="userSpaceOnUse">
<stop stop-color="#75AFF7"/>
<stop offset="1" stop-color="#1075FF"/>
</linearGradient>
<linearGradient id="paint46_linear_156_90" x1="482.576" y1="441.855" x2="629.074" y2="441.855" gradientUnits="userSpaceOnUse">
<stop stop-color="#36D7E2"/>
<stop offset="1" stop-color="#23C1D9"/>
</linearGradient>
<linearGradient id="paint47_linear_156_90" x1="2.55902" y1="573.52" x2="699.78" y2="489.372" gradientUnits="userSpaceOnUse">
<stop stop-color="#75AFF7"/>
<stop offset="1" stop-color="#1075FF"/>
</linearGradient>
<linearGradient id="paint48_linear_156_90" x1="-6.05955" y1="501.936" x2="691.136" y2="417.792" gradientUnits="userSpaceOnUse">
<stop stop-color="#75AFF7"/>
<stop offset="1" stop-color="#1075FF"/>
</linearGradient>
<linearGradient id="paint49_linear_156_90" x1="-11.3161" y1="458.511" x2="685.924" y2="374.361" gradientUnits="userSpaceOnUse">
<stop stop-color="#75AFF7"/>
<stop offset="1" stop-color="#1075FF"/>
</linearGradient>
<linearGradient id="paint50_linear_156_90" x1="-16.0267" y1="419.469" x2="681.202" y2="335.321" gradientUnits="userSpaceOnUse">
<stop stop-color="#75AFF7"/>
<stop offset="1" stop-color="#1075FF"/>
</linearGradient>
<linearGradient id="paint51_linear_156_90" x1="-20.7758" y1="379.981" x2="676.425" y2="295.837" gradientUnits="userSpaceOnUse">
<stop stop-color="#75AFF7"/>
<stop offset="1" stop-color="#1075FF"/>
</linearGradient>
<linearGradient id="paint52_linear_156_90" x1="-24.191" y1="352.047" x2="673.076" y2="267.894" gradientUnits="userSpaceOnUse">
<stop stop-color="#75AFF7"/>
<stop offset="1" stop-color="#1075FF"/>
</linearGradient>
<linearGradient id="paint53_linear_156_90" x1="-36.847" y1="246.836" x2="660.316" y2="162.696" gradientUnits="userSpaceOnUse">
<stop stop-color="#75AFF7"/>
<stop offset="1" stop-color="#1075FF"/>
</linearGradient>
<linearGradient id="paint54_linear_156_90" x1="-40.3635" y1="217.788" x2="656.841" y2="133.643" gradientUnits="userSpaceOnUse">
<stop stop-color="#75AFF7"/>
<stop offset="1" stop-color="#1075FF"/>
</linearGradient>
<linearGradient id="paint55_linear_156_90" x1="-43.6585" y1="190.516" x2="653.558" y2="106.369" gradientUnits="userSpaceOnUse">
<stop stop-color="#75AFF7"/>
<stop offset="1" stop-color="#1075FF"/>
</linearGradient>
<linearGradient id="paint56_linear_156_90" x1="427.464" y1="110.903" x2="497.83" y2="110.903" gradientUnits="userSpaceOnUse">
<stop stop-color="#36D7E2"/>
<stop offset="1" stop-color="#23C1D9"/>
</linearGradient>
<linearGradient id="paint57_linear_156_90" x1="-48.1749" y1="153.153" x2="649.039" y2="69.006" gradientUnits="userSpaceOnUse">
<stop stop-color="#75AFF7"/>
<stop offset="1" stop-color="#1075FF"/>
</linearGradient>
<linearGradient id="paint58_linear_156_90" x1="-43.8668" y1="188.59" x2="653.265" y2="104.453" gradientUnits="userSpaceOnUse">
<stop stop-color="#75AFF7"/>
<stop offset="1" stop-color="#1075FF"/>
</linearGradient>
<linearGradient id="paint59_linear_156_90" x1="-49.0434" y1="146.082" x2="648.198" y2="61.9322" gradientUnits="userSpaceOnUse">
<stop stop-color="#75AFF7"/>
<stop offset="1" stop-color="#1075FF"/>
</linearGradient>
<linearGradient id="paint60_linear_156_90" x1="-52.5686" y1="116.558" x2="644.627" y2="32.4135" gradientUnits="userSpaceOnUse">
<stop stop-color="#75AFF7"/>
<stop offset="1" stop-color="#1075FF"/>
</linearGradient>
<linearGradient id="paint61_linear_156_90" x1="-54.8954" y1="97.3941" x2="642.334" y2="13.2459" gradientUnits="userSpaceOnUse">
<stop stop-color="#75AFF7"/>
<stop offset="1" stop-color="#1075FF"/>
</linearGradient>
<linearGradient id="paint62_linear_156_90" x1="1114.99" y1="612.34" x2="333.627" y2="591.303" gradientUnits="userSpaceOnUse">
<stop stop-color="#D7E5FB"/>
<stop offset="1" stop-color="#7AAFFF"/>
</linearGradient>
<linearGradient id="paint63_linear_156_90" x1="13.4405" y1="663.589" x2="710.651" y2="579.443" gradientUnits="userSpaceOnUse">
<stop stop-color="#75AFF7"/>
<stop offset="1" stop-color="#1075FF"/>
</linearGradient>
</defs>
</svg>
