<svg width="30" height="54" viewBox="0 0 30 54" fill="none" xmlns="http://www.w3.org/2000/svg">
<path opacity="0.5" d="M29.4645 14.7322C29.4645 21.6798 18.723 37.8686 15.584 42.4513C15.4892 42.5898 15.3622 42.7031 15.2138 42.7815C15.0653 42.8598 14.9001 42.9007 14.7322 42.9007C14.5644 42.9007 14.3991 42.8598 14.2507 42.7815C14.1023 42.7031 13.9752 42.5898 13.8805 42.4513C10.7415 37.8686 0 21.6798 0 14.7322C1.64678e-07 10.825 1.55214 7.07781 4.31497 4.31497C7.0778 1.55214 10.825 0 14.7322 0C18.6395 0 22.3867 1.55214 25.1495 4.31497C27.9123 7.07781 29.4645 10.825 29.4645 14.7322Z" fill="#D92863"/>
<path opacity="0.5" d="M14.733 53.759C16.5887 53.759 18.093 52.2547 18.093 50.399C18.093 48.5434 16.5887 47.0391 14.733 47.0391C12.8774 47.0391 11.373 48.5434 11.373 50.399C11.373 52.2547 12.8774 53.759 14.733 53.759Z" fill="#D92863"/>
</svg>
